<svg xmlns="http://www.w3.org/2000/svg" width="1400" height="1400" xmlns:v="https://vecta.io/nano"><path d="M617.147 104.878l23.239-.009 40.466-.004 13.507-.002 15.599.005 5.644-.001c24.395-.026 24.395-.026 34.398 3.133l5.813 1.375c21.122 5.3 37.844 18.736 53.188 33.625l2.398 2.285c19.11 19.546 24.734 45.82 25.789 72.09l.248 5.445L838 236l3.767.01 88.593.27 10.912.037 2.194.007 35.141.103 36.077.115 20.256.061 19.073.064 6.992.017 9.567.037 2.777-.006c6.092.052 11.722.914 17.651 2.284l3.539.746c14.85 3.327 28.851 9.107 40.461 19.254v2l2.188.75c11.075 4.922 18.223 17.54 24.813 27.25l1.914 2.797c3.97 6.273 6.724 12.907 9.336 19.828l.999 2.58c6.561 18.19 6.19 37.027 6.137 56.089l.01 11.953.003 20.905.004 31.087.006 55.535-.006 48.604.001 3.26.003 13.102-.015 122.848.001 109.066.013 122.618-.003 13.08v3.253l.008 48.561-.01 55.24.002 30.888-.011 20.664.001 11.752c.052 20.046.059 39.986-7.017 59.038l-1.052 2.902c-5.383 14.355-12.434 25.575-23.323 36.348l-6.687 6.813C1141 1199 1141 1199 1139 1199l-1 3c-3.492 2.619-6.887 4.548-11 6v2c-2.647 1.461-3.894 2-7 2v2c-14.013 6.638-27.054 10.078-42.506 10.311l-3.52.062-9.7.15-6.267.093-117.149.552-18.941.005-62.885.013h-3.381-3.386c-18.244 0-36.488.009-54.732.023l-56.61.02c-10.541 0-21.082.002-31.624.013l-26.795.004c-4.545-.003-9.09-.003-13.635.005-4.167.008-8.334.006-12.502-.002a942.33 942.33 0 0 0-4.493.006c-25.907.091-47.06-6.852-67.876-22.255l-3-2v-2l-1.664-.68c-16.963-9.588-29.139-33.481-35.336-51.32-3.391-12.256-4.185-24.353-4.562-37l-.131-4.082L539 1096l-3.594-.01-84.637-.27-10.438-.037-2.099-.007-33.558-.103-34.484-.115-19.348-.061-18.241-.064-6.666-.017c-30.099-.033-56.405-4.544-81.936-21.316l-3.375-2.117L238 1070v-2l-1.703-.719c-2.816-1.571-4.776-3.496-7.047-5.781l-2.422-2.406C225 1057 225 1057 225 1055l-3-1c-1.589-1.993-3.025-3.951-4.437-6.062l-1.22-1.801c-2.84-4.251-5.325-8.447-7.343-13.137l-1.203-2.695c-9.765-22.531-10.099-44.234-10.054-68.366l-.006-11.904-.002-20.823-.002-30.965-.004-55.318.004-48.418v-3.247l-.002-13.051.01-122.378-.001-108.643-.009-122.139.002-13.03v-3.241l-.005-48.37.007-55.029-.001-30.768.007-20.587-.001-11.706c-.077-44.971-.077-44.971 6.261-61.323l1.125-2.996c8.162-20.648 8.162-20.648 12.875-23.004l1.625-3c2.696-4.884 6.251-9.246 10.375-13l2.125-.508L234 138l.875-1.766c1.619-3.216 4.275-4.921 7.125-6.984l1.656-1.246C247.728 125 247.728 125 250 125v-2c11.377-8.646 24.64-13.535 38.613-15.492 3.245-.308 3.245-.308 5.387-1.508 2.18-.107 4.362-.147 6.545-.158l2.072-.015 6.947-.032 5.009-.03 13.844-.068 11.902-.06 35.979-.169 20.611-.093 220.24-.496z" fill="#81a8ab"/><path d="M834 286l91.544-.153 10.818-.012 2.175-.002 34.829-.064 35.762-.051 20.077-.035 18.908-.022 6.928-.018 9.487-.003 2.744-.026c18.061.125 35.145 9.081 48.103 21.262 14.053 14.97 17.95 32.749 17.882 52.663l.011 3.993.001 10.92.012 11.901.011 20.841.016 30.992.026 58.575.011 45.233.005 13.024.001 3.271.019 91.061v3.467 17.397 3.49 6.987l.041 108.72.046 122.164v13.027 3.24l.03 51.606.006 51.864.016 30.805-.005 20.59.007 11.722-.008 10.689.025 5.604c-.158 19.021-7.38 36.305-20.801 49.754-3.668 3.394-7.356 6.114-11.727 8.523l-2.465 1.395c-8.231 4.401-16.322 5.879-25.588 6.219l-2.808.114c-15.781.553-31.585.438-47.374.447l-15.059.022-36.218.039-13.668.012-60.344.042-14.71.006-3.692.001-59.316.066-61.037.054-34.216.036-29.107.02c-4.944-.005-9.888-.003-14.831.017l-13.604.001a557.66 557.66 0 0 0-4.893.014c-19.891.137-38.452-4.381-53.008-18.693-14.586-15.124-20.008-32.524-20.371-53.133l-.047-2.586c-.278-18.932.204-36.003 6.355-54.094l1.723-5.52 3.863-12.027 9.938-31.8 8.207-25.84c1.806-5.36 3.423-10.728 4.895-16.187 2.85-10.289 6.252-20.373 9.671-30.483 2.987-8.841 5.895-17.674 8.221-26.717.821-3.177 1.757-6.239 2.939-9.296 1.721-4.464 2.97-9.018 4.23-13.629 2.827-10.129 6.109-20.076 9.48-30.035 1.833-5.423 3.527-10.875 5.141-16.367C664 829 664 829 665 828a140.23 140.23 0 0 0 .75-4.625c.895-5.098 2.31-9.817 4.011-14.7 2.294-6.662 4.261-13.413 6.239-20.175 2.474-8.435 5.024-16.813 7.863-25.133 1.444-4.276 2.785-8.582 4.12-12.893l3.748-11.885 7.27-23.652c1.879-6.743 4.119-13.348 6.359-19.978 2.329-6.93 4.437-13.902 6.465-20.925l3.613-11.91.615-1.962 3.455-10.898L727 624.543c2.585-9.159 5.174-18.328 8.262-27.332.923-2.764 1.766-5.548 2.613-8.336a440.89 440.89 0 0 1 4.5-13.875c2.434-7.219 4.534-14.515 6.57-21.855 1.162-4.162 2.422-8.141 4.055-12.145l2.313-7.875c1.589-5.504 3.27-10.953 5.125-16.375 2.027-5.974 3.799-11.989 5.5-18.062 1.874-6.69 3.876-13.302 6.125-19.875 2.259-6.608 4.221-13.25 6.043-19.991 1.719-6.314 3.664-12.542 5.659-18.773l4.86-15.924 4.5-15.187.883-2.91c.742-2.264 1.556-4.505 2.406-6.73 1.867-4.919 3.339-9.943 4.836-14.984 3.11-10.344 6.448-20.596 9.909-30.827l4.028-11.986.684-2.027 4.019-12.637c2.124-6.938 4.379-13.828 6.672-20.711l1.17-3.547 1.146-3.445 1.018-3.066c1.233-3.427 2.657-6.724 4.103-10.067z" fill="#d7d7d6"/><path d="M617.147 104.878l23.239-.009 40.466-.004 13.507-.002 15.599.005 5.644-.001c24.395-.026 24.395-.026 34.398 3.133l5.813 1.375c21.122 5.3 37.844 18.736 53.188 33.625l2.398 2.285c19.11 19.546 24.734 45.82 25.789 72.09l.248 5.445L838 236l3.767.01 88.593.27 10.912.037 2.194.007 35.141.103 36.077.115 20.256.061 19.073.064 6.992.017 9.567.037 2.777-.006c6.092.052 11.722.914 17.651 2.284l3.539.746c14.85 3.327 28.851 9.107 40.461 19.254v2l2.188.75c11.075 4.922 18.223 17.54 24.813 27.25l1.914 2.797c3.97 6.273 6.724 12.907 9.336 19.828l.999 2.58c6.561 18.19 6.19 37.027 6.137 56.089l.01 11.953.003 20.905.004 31.087.006 55.535-.006 48.604.001 3.26.003 13.102-.015 122.848.001 109.066.013 122.618-.003 13.08v3.253l.008 48.561-.01 55.24.002 30.888-.011 20.664.001 11.752c.052 20.046.059 39.986-7.017 59.038l-1.052 2.902c-5.383 14.355-12.434 25.575-23.323 36.348l-6.687 6.813C1141 1199 1141 1199 1139 1199l-1 3c-3.492 2.619-6.887 4.548-11 6v2c-2.647 1.461-3.894 2-7 2v2c-14.013 6.638-27.054 10.078-42.506 10.311l-3.52.062-9.7.15-6.267.093-117.149.552-18.941.005-62.885.013h-3.381-3.386c-18.244 0-36.488.009-54.732.023l-56.61.02c-10.541 0-21.082.002-31.624.013l-26.795.004c-4.545-.003-9.09-.003-13.635.005-4.167.008-8.334.006-12.502-.002a942.33 942.33 0 0 0-4.493.006c-25.907.091-47.06-6.852-67.876-22.255l-3-2v-2l-1.664-.68c-16.963-9.588-29.139-33.481-35.336-51.32-3.391-12.256-4.185-24.353-4.562-37l-.131-4.082L539 1096l-3.594-.01-84.637-.27-10.438-.037-2.099-.007-33.558-.103-34.484-.115-19.348-.061-18.241-.064-6.666-.017c-30.099-.033-56.405-4.544-81.936-21.316l-3.375-2.117L238 1070v-2l-1.703-.719c-2.816-1.571-4.776-3.496-7.047-5.781l-2.422-2.406C225 1057 225 1057 225 1055l-3-1c-1.589-1.993-3.025-3.951-4.437-6.062l-1.22-1.801c-2.84-4.251-5.325-8.447-7.343-13.137l-1.203-2.695c-9.765-22.531-10.099-44.234-10.054-68.366l-.006-11.904-.002-20.823-.002-30.965-.004-55.318.004-48.418v-3.247l-.002-13.051.01-122.378-.001-108.643-.009-122.139.002-13.03v-3.241l-.005-48.37.007-55.029-.001-30.768.007-20.587-.001-11.706c-.077-44.971-.077-44.971 6.261-61.323l1.125-2.996c8.162-20.648 8.162-20.648 12.875-23.004l1.625-3c2.696-4.884 6.251-9.246 10.375-13l2.125-.508L234 138l.875-1.766c1.619-3.216 4.275-4.921 7.125-6.984l1.656-1.246C247.728 125 247.728 125 250 125v-2c11.377-8.646 24.64-13.535 38.613-15.492 3.245-.308 3.245-.308 5.387-1.508 2.18-.107 4.362-.147 6.545-.158l2.072-.015 6.947-.032 5.009-.03 13.844-.068 11.902-.06 35.979-.169 20.611-.093 220.24-.496zm-353.374 68.958c-17.01 20.756-18.536 43.636-18.41 69.431l-.014 11.887v20.784l.001 30.907.001 55.211.018 48.312-.001 3.241-.003 13.024.04 122.093.018 108.422-.011 27.771-.001 3.454.009 90.663.004 9.757.003 6.472-.003 48.282.024 54.903.004 30.711.019 20.53.001 11.686c-.153 26.663-.153 26.663 8.528 51.623l1.27 2.445c7.411 13.353 18.601 21.45 32.73 26.555l2.234.875c7.132 2.788 13.139 3.269 20.706 3.245l3.057.003 10.152-.009h7.273l15.664-.008 22.648-.012 36.745-.018 35.692-.021 2.223-.001 11.039-.004L547 1046l.819-3.102 1.081-4.08.538-2.039c1.36-5.122 2.895-10.147 4.625-15.154l.736-2.168 1.465-4.298 6.111-18.721 1.316-4.234.665-2.139 1.796-5.705 8.763-28.946 8.362-27.769 3.539-11.695c2.822-9.392 5.736-18.676 9.129-27.879 1.395-4.06 2.393-8.174 3.383-12.348 1.878-7.61 4.811-14.938 7.488-22.293 1.191-3.45 2.197-6.917 3.184-10.43l2.25-7.187L618 817l10.18-32.454c2.804-8.269 5.288-16.585 7.636-24.995 1.756-6.226 3.801-12.255 6.04-18.325 1.767-4.982 3.165-10.055 4.57-15.149 3.173-11.476 6.442-22.875 10.293-34.144 1.581-4.745 2.924-9.558 4.281-14.371 3.259-11.557 6.784-22.998 10.625-34.375 1.761-5.227 3.302-10.46 4.699-15.793.598-2.117 1.296-4.104 2.113-6.145 1.993-5.041 3.189-10.317 4.5-15.566C684 602 684 602 685.461 598.605c1.782-4.175 2.973-8.358 4.164-12.73 5.189-18.584 11.103-36.957 16.992-55.33 1.924-6.028 3.725-12.083 5.474-18.164 1.607-5.516 3.429-10.945 5.284-16.382 3.058-8.981 5.683-18.048 8.14-27.211 1.582-5.834 3.408-11.483 5.523-17.146 1.492-4.102 2.732-8.269 3.962-12.456l.775-2.604 4.413-15.333c1.161-4.096 2.42-8.07 3.973-12.031 3.532-9.332 6.409-18.905 9.14-28.496.814-2.837 1.655-5.611 2.754-8.352 1.44-3.612 2.192-7.359 3.066-11.141.833-3.06 1.896-5.958 3.033-8.916 1.734-4.746 3.132-9.605 4.595-14.44l6.803-21.97 1.645-5.31c1.554-5.048 3.316-9.849 5.462-14.677 7.78-18.695 8.272-36.959 8.215-56.918v-2.078c.024-26.328.024-26.328-8.625-50.859l-1.859-3.527L777 180h-2l-.797-1.77c-6.936-12.859-23.08-19.898-36.345-23.999-7.623-2.106-15.174-2.048-23.025-1.966l-5.263-.02c-4.767-.017-9.533.003-14.3.029h-15.485c-10.089-.011-20.178.009-30.267.041l-35.286.039-62.974.083-61.039.082-3.8.001-7.578.003-3.777.001-3.767.001-58.275.055-21.083.021-33.438.054-15.268.025-13.997.031-5.042.005c-23.282-.023-43.747 3.46-60.422 21.12zM834 286l-3.336 9.02-.945 2.551c-4.14 11.213-7.805 22.568-11.313 33.992-2.8 8.958-5.863 17.837-8.871 26.727-4.396 13.021-8.646 26.034-12.281 39.293-1.815 6.541-4.056 12.92-6.397 19.288-3.086 8.453-5.488 16.977-7.708 25.692-2.324 9.095-5.314 17.977-8.297 26.872-2.645 7.903-5.08 15.859-7.375 23.87-3.338 11.629-6.856 23.153-10.812 34.589-1.695 4.95-3.103 9.808-4.162 14.93-.704 3.044-1.703 5.957-2.723 8.908-.786 2.283-1.523 4.577-2.246 6.881l-.729 2.323-.744 2.377-5.125 15.75c-1.946 5.748-3.542 11.582-5.1 17.446a124.78 124.78 0 0 1-4.112 12.575c-3.399 8.982-5.873 18.366-8.475 27.604-3.49 12.377-7.344 24.64-11.19 36.91l-3.06 9.965c-2.003 6.522-4.182 12.978-6.375 19.438-3.14 9.316-6.039 18.658-8.667 28.131a165.35 165.35 0 0 1-4.899 14.826c-1.516 4.359-2.746 8.789-3.996 13.23-2.532 8.992-5.217 17.914-8.062 26.813l-1.984 6.23-8.453 25.84c-.754 2.584-.934 5.194-1.197 7.865-.42 2.368-1.206 4.316-2.155 6.525-2.449 5.962-4.302 12.056-6.148 18.227l-6.812 21.5c-2.052 6.032-3.712 12.1-5.258 18.277-.889 3.167-1.976 6.18-3.158 9.247-1.735 4.757-3.123 9.63-4.584 14.476l-7.875 24.625c-2.657 7.833-5.016 15.719-7.253 23.681-3.874 13.786-8.359 27.38-12.747 41.009l-7.274 22.834-3.624 11.309-3.748 11.987-1.478 4.569c-4.487 13.258-4.705 26.38-4.689 40.237l-.001 2.755c.065 25.065 3.906 43.49 21.501 62.495 15.075 14.535 34.195 17.948 54.393 17.8l5.105.012 13.891-.021 15.035-.002 29.405-.031 34.304-.029 61.256-.06 59.315-.062 3.688-.001 14.68-.006 60.111-.044 13.655-.011 35.904-.042 14.833-.019c47.115 2.571 47.115 2.571 87.863-16.986 4.585-4.958 8.177-10.325 11.5-16.187l1.176-1.945c5.987-10.68 7.421-22.956 7.325-34.962l.017-4.004-.01-10.908.01-11.903-.001-20.83-.002-30.976-.003-55.331-.016-48.421v-3.246l.002-13.046-.035-122.343-.018-108.662.008-27.826.001-3.46-.01-90.835-.003-9.776-.002-6.485v-48.387l-.021-55.026-.005-30.785-.015-20.576-.001-11.714-.012-10.682.015-5.6c-.077-11.358-1.493-23.299-6.901-33.459l-1.04-1.998c-8.859-16.184-24.202-26.913-41.46-32.814-6.461-1.808-12.545-2.283-19.232-2.241l-3.006-.005c-3.303-.003-6.605.008-9.908.019-2.376.001-4.751 0-7.127-.001-6.435-.001-12.87.011-19.306.025l-18.144.015-35.923.037-34.883.041-2.174.002-10.799.008L834 286z" fill="#4b6975"/><path d="M483 337c9.409 4.592 14.882 14.665 20.203 23.211 1.731 2.686 3.569 5.232 5.484 7.789 3.527 4.774 6.684 9.712 9.813 14.75 5.303 8.523 10.952 16.766 16.717 24.981L546 423.5c6.188 9.383 12.675 18.561 19.105 27.779l16.833 24.658c3.108 4.684 6.313 9.289 9.563 13.875l28.875 41.875 1.352 2.086c4.121 6.431 6.304 10.525 5.273 18.227-1.892 5.596-6.12 9.811-11 13-3.688 1.254-7.288 1.12-11.155 1.114h-2.159l-7.045-.016-4.893-.004-12.862-.025-13.131-.02L539 566l.011 2.893.196 69.735.095 33.723.075 29.399.047 15.561.03 14.661.024 5.367c.086 10.492.055 19.835-6.664 28.474L530 768l-1.553 1.285c-8.066 5.583-17.694 4.417-27.076 4.344l-5.756.007c-4.009.003-8.017-.012-12.025-.039l-15.369-.009c-3.958.011-7.915.002-11.873-.013a936 936 0 0 0-5.666.002 640.09 640.09 0 0 1-7.931-.042l-2.335.02c-6.953-.121-12.506-2.577-17.667-7.241-8.047-8.925-7.3-19.367-7.204-30.684l-.002-5.59.05-15.116.032-15.819.085-29.929.087-34.085L416 565l-3.781.087-14.125.323-6.069.139-36.275.763-3.463.071c-7.624.111-12.743-1.414-18.599-6.321-4.235-5.176-5.801-9.306-5.359-16.035 1.231-5.545 4.349-9.517 7.672-14.027l3.458-5.196 3.827-5.745 5.461-8.211c9.897-14.961 20.103-29.714 30.566-44.285l10.313-14.687 1.271-1.845 15.893-23.783c6.803-10.317 13.729-20.478 21.131-30.375 3.992-5.351 7.829-10.786 11.58-16.308l1.597-2.349 3.229-4.752C470.187 334.425 470.187 334.425 483 337z" fill="#4b6973"/><path d="M864.288 560.678l2.491-.03 8.136-.054 5.684-.035 11.918-.04 15.2-.116 11.747-.051 5.6-.048c11.398-.15 20.803.022 29.626 8.275 4.612 5.187 5.606 9.362 5.552 16.152l.005 2.374-.019 7.881.001 5.647-.025 15.34-.016 16.027-.043 30.355-.043 34.556L960 768l2.869-.034 26.835-.225 13.794-.118 13.324-.097 5.071-.054c16.398-.252 16.398-.252 23.106 5.529 4.023 4.412 4.572 9.006 4.429 14.813-1.603 11.9-13.862 24.929-20.492 34.688l-3.656 5.399-19.972 28.966c-3.42 4.817-6.711 9.711-9.979 14.632-16.094 24.215-32.423 48.269-49.513 71.793-3.839 5.304-7.571 10.673-11.257 16.085l-1.606 2.348-8.604 12.745-3.664 5.406-1.668 2.541c-4.241 6.205-8.634 10.721-16.215 12.213l-2.93-.066-2.945.004c-7.004-1.354-10.636-6.284-14.555-11.754l-1.563-2.134L876 974l-1.494-2.086L864 957l-3.375-4.816-8.843-12.635-10.53-15.043-8.788-12.575L815.5 888l-18.721-26.45-5.389-7.698-20.046-28.894-4.223-6.118C748.74 792.283 748.74 792.283 750 781c1.792-5.376 5.331-8.918 10-12 3.711-1.273 7.464-1.134 11.339-1.114h2.218l7.24.016 5.027.004 13.218.025 13.493.02L839 768l-.011-2.982-.196-71.808-.095-34.726-.075-30.265-.047-16.027-.03-15.084-.024-5.536-.004-7.561-.035-2.211c.071-6.091 2.362-9.555 6.481-13.847l1.973-1.703 1.965-1.734c4.875-3.522 9.521-3.821 15.385-3.838z" fill="#4c6770"/><path d="M1087 290c17.31 4.824 30.679 17.226 39.5 32.617 5.822 11.678 6.952 24.439 6.88 37.29l.014 4.004-.003 10.908.012 11.903.007 20.83.01 30.976.017 55.331.002 48.421.002 6.499.003 9.793.008 91.025-.001 3.465-.008 27.853.021 108.662.032 122.122-.002 13.022v3.239l.019 48.387-.002 55.026.009 30.785-.009 20.576.004 11.714-.01 10.682.024 5.6c-.163 19.019-7.383 36.3-20.803 49.748-3.668 3.394-7.356 6.114-11.727 8.523l-2.465 1.395c-8.231 4.401-16.322 5.879-25.588 6.219l-2.808.114c-15.781.553-31.585.438-47.374.447l-15.059.022-36.218.039-13.668.012-60.344.042-14.71.006-3.692.001-59.316.066-61.037.054-34.216.036-29.107.02c-4.944-.005-9.888-.003-14.831.017l-13.604.001a557.66 557.66 0 0 0-4.893.014c-19.891.137-38.452-4.381-53.008-18.693-14.812-15.358-20.285-33.031-20.16-53.977l.004-2.782.031-8.679.014-5.934L589 1073h1l-.019 3.345.062 12.396.002 5.345c-.417 11.99-.417 11.99 4.514 22.512L598 1120v2l3 1 1.734 1.781c2.885 2.825 6.043 4.692 9.516 6.719l2.042 1.202L620 1136l2.375 1.367c9.011 4.843 19.429 6.756 29.569 6.761l2.054.005h6.81l4.934.007 13.555.005 14.62.01 28.642.012 23.28.006 65.996.013h3.594 3.598l57.743.023 59.282.02 33.286.013 28.339.004 14.458.005 13.24-.002 4.785.006c7.864.026 15.22-.119 22.84-2.255l3.301-.824c7.023-2.013 12.935-4.733 19.141-8.59 2.559-1.586 2.559-1.586 4.773-2.547 2.284-1.329 2.723-2.66 3.785-5.039l2.625-2.75c3.178-3.638 5.367-7.602 7.563-11.875l1.008-1.897c5.151-10.354 6.25-21.362 6.187-32.77l.015-3.876v-10.581l.015-11.539.012-20.201.017-30.042.028-56.789.01-43.87.003-6.307.002-3.162.002-3.168.002-3.174.018-88.359v-3.364l-.003-16.879v-3.386l-.001-6.779.042-105.418.05-118.502-.001-12.647v-3.145l.029-46.926.006-53.408.017-29.853-.008-19.989.007-11.357c.083-16.77-1.014-32.351-5.1-48.663-.721-3.095-1.162-6.168-1.541-9.322h-2l-.805-2.266-1.07-2.984-1.055-2.953c-.903-2.36-1.891-4.566-3.07-6.797z" fill="#b3b9bd"/><path d="M326.178 152.839l5.234-.015 14.331-.028 12.305-.027 40.518-.073 10.555-.015 65.616-.074 15.181-.012 3.811-.003 61.109-.109 62.805-.088 35.236-.06 30.009-.036 15.294-.028 14.035-.004 5.043-.022c16.369-.167 31.557 3.64 44.74 13.755l2.922 2.094c6.781 5.32 6.781 5.32 7.582 9.598-.257 3.607-.626 6.214-2.922 9.078-2.531 1.968-4.434 1.522-7.582 1.23-2.203-.433-4.38-.923-6.559-1.465-5.581-1.223-11.013-1.661-16.718-1.667l-2.126-.006-7.035-.003-5.103-.009-14.009-.011-15.115-.016-33.051-.024-20.651-.012-57.212-.026h-3.698l-3.707-.001-7.436-.001-3.726-.001-59.713-.045-61.354-.037-34.428-.025-29.328-.012c-4.982.004-9.965.003-14.947-.011a2521.32 2521.32 0 0 0-13.719.001 753.98 753.98 0 0 1-4.928-.01c-8.509-.043-16.736.369-25.146 1.739l-2.229.362c-13.579 2.433-23.985 10.371-32.001 21.404-2.541 3.854-4.48 7.543-6.062 11.875l-1.058 2.843c-.943 3.161-1.193 5.638-1.197 8.923l-.018 3.442.011 3.759-.012 4.027-.006 11.097-.017 12.061-.02 21.148-.029 31.447-.052 52.896-.045 52.385-.004 3.288-.019 16.532-.113 117.139-.104 113.81-.004 3.543-.037 35.22-.075 71.749-.003 3.332L279 1009c-10.006-1.511-17.63-7.26-24-15-2.232-3.224-4.215-6.509-6-10l-1.559-2.867c-2.276-5.408-1.855-11.085-1.824-16.858l-.015-3.911v-10.761l-.015-11.703-.012-20.517-.017-30.511-.028-57.668-.01-44.544-.003-6.397-.002-3.208-.002-3.214-.002-3.219-.018-89.662v-3.416l.003-17.139v-3.438l.001-6.884-.042-107.047-.05-120.262.001-12.83v-3.191l-.029-47.655-.006-54.227-.017-30.329.008-20.288-.007-11.541c-.124-25.669 2.058-49.287 20.422-68.7 7.564-7.594 16.245-12.941 26.469-16.139l3.141-1.008c10.078-2.421 20.488-2.021 30.787-2.028z" fill="#9cc1c6"/><path d="M772 176l3 2v2h2l3.813 7.188 1.08 1.982c5.337 10.331 6.604 21.566 6.928 33.045l.113 3.737.192 11.985.022 2.072c.232 25.952-4.608 47.801-14.219 71.969-2.757 7.028-4.892 14.233-7.002 21.477l-2.876 9.673-1.029 3.459-4.201 13.734L758 366.5c-2.449 8.57-5.16 17.052-8 25.5-3.933 11.703-7.781 23.411-11.25 35.262l-.66 2.254-1.252 4.311c-1.866 6.412-3.997 12.725-6.162 19.041-3.463 10.145-6.555 20.378-9.566 30.665l-7.297 23.593-6.25 20.125c-5.075 17.563-10.661 34.98-16.241 52.388-1.955 6.128-3.763 12.28-5.494 18.475-.917 3.197-1.965 6.332-3.047 9.477-1.016 3.134-1.893 6.3-2.781 9.473-1.217 4.311-2.521 8.485-4.16 12.648-1.949 5.313-3.521 10.766-5.187 16.173l-3.09 9.928-.617 1.979-3.418 10.806c-2.753 8.598-5.343 17.209-7.705 25.922-1.27 4.636-2.694 9.183-4.26 13.73-2.085 6.086-3.796 12.218-5.437 18.438-2.164 8.171-4.712 16.103-7.587 24.049-2.2 6.135-4.012 12.31-5.692 18.605-1.87 6.934-4.14 13.708-6.447 20.506-1.515 4.468-2.902 8.969-4.27 13.484l-3.698 11.703c-2.669 8.325-5.245 16.651-7.602 25.07-1.388 4.852-3.031 9.607-4.691 14.371-2.209 6.453-4.118 12.956-5.949 19.523-1.985 7.1-4.188 14.065-6.687 21-2.705 7.517-5.022 15.075-7.154 22.773-2.286 8.192-4.88 16.274-7.543 24.351-1.951 5.977-3.601 11.957-5.083 18.066-1.029 4.016-2.349 7.9-3.72 11.81l-1.684 4.98-.866 2.567c-2.703 8.038-5.304 16.064-7.528 24.249-1.431 4.971-3.121 9.849-4.787 14.745l-2.698 7.958-.92 2.684-.896 2.66-.799 2.35c-.729 2.487-1.318 4.952-1.873 7.482l-.54 2.455L547 1046l-93.557.102-11.051.008-2.222.002-35.599.043-36.541.034-22.539.028-17.297.01-7.086.012-9.686.002-2.821.018c-9.454-.043-17.139-2.185-25.6-6.258l-2.367-.984c-10.911-4.81-19.868-13.646-25.633-24.016l-1.102-1.844c-5.045-9.088-8.086-20.583-7.961-30.969l.027-2.957L246 977c2.204 2.758 3.707 5.401 5.125 8.625 4.846 9.807 12.137 16.574 21.875 21.375l2.434 1.215c12.731 5.724 28.098 3.953 41.767 3.99l6.715.03 18.14.068 18.99.076 31.845.123 32.784.125 2.045.008 10.158.041L522 1013l.459-3.371c.416-2.796.836-4.862 1.916-7.414 1.9-4.788 3.252-9.692 4.625-14.652 2.357-8.476 4.944-16.811 8-25.062 2.733-7.478 5.181-15.029 7.563-22.625l.636-2.028 2.711-9.05 4.965-16.422 1.027-3.332 2.056-6.666 3.202-10.385.957-3.106 3.074-10.277c1.781-5.749 3.751-11.439 5.676-17.141 3.307-9.818 6.558-19.629 9.41-29.59 1.29-4.483 2.715-8.9 4.223-13.316 1.745-5.149 3.283-10.31 4.688-15.562 2.351-8.733 5.097-17.334 7.875-25.937l.648-2.012c2.344-7.272 4.789-14.492 7.434-21.661 1.184-3.306 2.152-6.634 3.106-10.014 2.095-7.294 4.364-14.526 6.688-21.75l1.048-3.258 2.057-6.389 11.069-35.584 8.609-27.038c2.888-8.882 5.603-17.79 8.097-26.792 2.098-7.48 4.571-14.816 7.071-22.17 3.037-9.007 5.757-18.096 8.41-27.223 1.777-6.105 3.639-12.157 5.702-18.171 6.078-17.834 6.078-17.834 11.207-35.957.862-3.306 1.892-6.512 3.012-9.738.989-2.917 1.883-5.859 2.781-8.805l3.563-11.125c1.106-3.264 2.048-6.546 2.938-9.875 1.315-4.908 2.849-9.696 4.5-14.5 3.916-11.447 7.48-22.991 11.023-34.559l10.632-33.321.907-2.683.894-2.642c2.192-6.556 4.124-13.157 5.858-19.848 1.194-4.525 2.835-8.637 4.685-12.947.775-2.622 1.501-5.231 2.188-7.875 2.017-7.51 4.293-14.915 6.688-22.312 5.096-15.756 9.969-31.58 14.528-47.5.754-2.605 1.531-5.152 2.561-7.663 1.089-2.785 1.89-5.549 2.657-8.438l.896-3.355.92-3.48 1.809-6.789.883-3.41c.523-1.907 1.094-3.803 1.755-5.667 3.406-10.005 2.435-20.771 2.303-31.197l-.041-6.209L764 190l9-3-1-2h-1c-.125-6.75-.125-6.75 1-9z" fill="#628c93"/><path d="M834 286l91.544-.153 10.818-.012 2.175-.002 34.829-.064 35.762-.051 20.077-.035 18.908-.022 6.928-.018 9.487-.003 2.744-.026c6.668.046 15.272.37 20.506 4.94 3.431 4.202 4.422 9.187 5.221 14.447h2c1.756 5.376 2.393 10.301 2.625 15.938l.117 2.361L1098 329l-2.781-1.645-3.719-2.168-1.82-1.08-1.836-1.064-1.65-.968c-6.742-3.304-12.11-4.517-19.545-4.474l-2.755-.02-9.088-.014-6.535-.031-17.707-.043-18.518-.06-35.05-.095-39.91-.116L855 317l-.372 2.021-.511 2.683-.497 2.646c-.61 2.607-1.447 4.931-2.491 7.393-2.654 6.292-4.382 12.808-6.191 19.383-3.869 13.986-3.869 13.986-6.224 19.965-1.129 3.024-2.001 6.119-2.91 9.215-1.475 4.946-3.091 9.848-4.679 14.758l-6.812 22.125c-1.797 6.258-3.891 12.369-6.125 18.484-3.155 8.843-5.665 17.894-8.16 26.941a105.52 105.52 0 0 1-2.492 7.277c-1.577 4.123-2.829 8.303-4.035 12.547-1.469 5.14-3.031 10.227-4.741 15.292l-3.634 11.395-5.625 17.313c-2.119 6.302-4.034 12.649-5.914 19.026l-5.051 16.146-.657 2.012-1.333 4.078c-3.264 9.985-6.38 19.925-8.76 30.163-.967 3.864-2.311 7.5-3.734 11.215-1.257 3.494-2.283 7.04-3.301 10.609-2.03 7.092-4.318 14.077-6.687 21.063-2.959 8.729-5.664 17.491-8.072 26.388-1.324 4.827-3.01 9.254-4.99 13.862-.884 2.831-1.629 5.693-2.375 8.563-1.846 6.894-3.981 13.55-6.512 20.227-1.015 2.929-1.757 5.844-2.481 8.854-1.383 5.157-3.22 10.182-4.945 15.232-2.827 8.376-5.525 16.736-7.808 25.276-4.247 15.787-9.374 31.347-14.366 46.911l-6.473 21.244c-1.281 4.345-2.72 8.572-4.344 12.8-1.066 2.898-1.878 5.855-2.696 8.831-1.313 4.689-2.707 9.316-4.285 13.922-1.037 3.107-1.954 6.247-2.871 9.391l-2.254 6.98-5.252 16.4-4.311 13.158c-2.49 7.435-4.424 14.999-6.383 22.588A201.01 201.01 0 0 1 657 952c-3.335 9.001-6.453 17.83-8.359 27.266-.64 2.73-1.571 5.148-2.641 7.734l-1.441 5.77c-1.439 5.744-3.135 11.333-5.434 16.793-2.16 5.235-3.705 10.596-5.26 16.033-1.527 5.325-3.223 10.567-5.068 15.792-.87 2.853-1.365 5.665-1.797 8.613h-2l-.289 3.316c-.68 5.422-2.373 10.45-4.086 15.621l-.922 2.842-3.563 10.706-.804 2.332-.709 2.018c-1.596 5.518-1.763 10.92-1.724 16.627l.004 2.396.031 7.518.014 5.121L613 1131c-11.007-3.547-16.649-10.473-23-20a126.82 126.82 0 0 1-.371-9.031l-.027-2.743-.027-5.78-.112-8.637c-.112-12.697 1.669-23.738 5.537-35.809l.951-3.147 2.549-7.916 12.023-38.283 8.207-25.842c1.806-5.36 3.423-10.728 4.895-16.187 2.85-10.289 6.252-20.373 9.671-30.483 2.987-8.841 5.895-17.674 8.221-26.717.821-3.177 1.757-6.239 2.939-9.296 1.721-4.464 2.97-9.018 4.23-13.629 2.827-10.129 6.109-20.076 9.48-30.035 1.833-5.423 3.527-10.875 5.141-16.367C664 829 664 829 665 828a140.23 140.23 0 0 0 .75-4.625c.895-5.098 2.31-9.817 4.011-14.7 2.294-6.662 4.261-13.413 6.239-20.175 2.474-8.435 5.024-16.813 7.863-25.133 1.444-4.276 2.785-8.582 4.12-12.893l3.748-11.885 7.27-23.652c1.879-6.743 4.119-13.348 6.359-19.978 2.329-6.93 4.437-13.902 6.465-20.925l3.613-11.91.615-1.962 3.455-10.898L727 624.543c2.585-9.159 5.174-18.328 8.262-27.332.923-2.764 1.766-5.548 2.613-8.336a440.89 440.89 0 0 1 4.5-13.875c2.434-7.219 4.534-14.515 6.57-21.855 1.162-4.162 2.422-8.141 4.055-12.145l2.313-7.875c1.589-5.504 3.27-10.953 5.125-16.375 2.027-5.974 3.799-11.989 5.5-18.062 1.874-6.69 3.876-13.302 6.125-19.875 2.259-6.608 4.221-13.25 6.043-19.991 1.719-6.314 3.664-12.542 5.659-18.773l4.86-15.924 4.5-15.187.883-2.91c.742-2.264 1.556-4.505 2.406-6.73 1.867-4.919 3.339-9.943 4.836-14.984 3.11-10.344 6.448-20.596 9.909-30.827l4.028-11.986.684-2.027 4.019-12.637c2.124-6.938 4.379-13.828 6.672-20.711l1.17-3.547 1.146-3.445 1.018-3.066c1.233-3.427 2.657-6.724 4.103-10.067z" fill="#f9f9f8"/><path d="M477 386c3.022.291 3.898.878 5.877 3.249l1.974 3.041 1.113 1.691 3.66 5.645 2.626 4.007 5.694 8.703 14.565 21.965 5.036 7.552 45.239 65.924 5.837 8.272 2.769 3.914 3.86 5.477 2.203 3.121C579 531 579 531 579 533l-2.307-.02-21.582-.135-11.094-.071-10.718-.058-4.077-.033c-10.089-.303-10.089-.303-19.222 3.317-3.227 4.136-3.43 7.884-3.392 12.946l-.018 2.407-.007 7.975-.026 5.722-.031 15.532-.051 16.243-.081 30.769-.154 55.134-.047 19.358-.03 12.023-.008 5.589-.018 7.609.003 2.251c-.017 3.09-.156 5.486-1.141 8.442h-54l-.044-17.59-.192-57.488-.111-34.86-.102-30.386-.049-16.087-.057-15.148-.011-5.553-.036-7.598.015-2.205c-.072-5.271-1.227-9.269-3.413-14.084-6.11-5.352-13.238-4.602-21.027-4.609l-4.073-.05-10.658-.079-10.9-.102L379 532c.799-4.87 2.839-8.176 5.617-12.176l1.455-2.139 4.803-6.998 3.36-4.923 5.283-7.737 12.728-18.774 1.798-2.672 6.936-10.314 18.828-27.324c4.185-5.903 8.214-11.9 12.192-17.945l14.688-21.625 1.42-2.023c2.798-3.942 5.753-7.675 8.893-11.352z" fill="#efc45e"/><path d="M877.101 594.759l2.624.013h2.972l3.217.031 3.287.009 10.424.062 7.055.027L924 595v2h2l.004 3.01.179 72.51.087 35.065.084 30.563.037 16.183.049 15.234.005 5.588.035 7.638-.024 2.226c.091 5.493 1.527 8.548 4.542 12.981 3.783 3.094 6.814 3.386 11.626 3.432l1.953.031 6.347.048 4.418.054 11.595.103 11.845.121L1002 802a57.58 57.58 0 0 1-4.766 8.063l-1.676 2.383L993.75 815l-3.824 5.434-1.978 2.804L959 865l-23.194 33.656-11.431 16.531-12.812 18.5-1.793 2.577c-2.808 4.016-5.639 7.96-8.769 11.736-3.272-1.091-3.642-1.515-5.496-4.219l-1.423-2.048-1.518-2.233-3.254-4.699-1.672-2.431-7.511-10.682-18.312-26.095-9.25-13.217-4.926-7.038-3.349-4.773-12.475-18.126-18.425-26.487-4.177-5.9-2.648-3.738-2.309-3.262a107.1 107.1 0 0 0-5.039-6.32C797 804 797 804 797 802l2.338-.004 21.89-.128 11.252-.063 10.874-.078 4.133-.013c7.963.02 14.438-.099 20.513-5.714 3.991-5.279 4.148-10.245 4.145-16.681l.011-2.357.018-7.826.02-5.608.036-12.078.065-19.082.182-54.261.107-29.966.056-18.985.046-11.787.012-5.483.031-7.459-.008-2.214c.072-6.96.072-6.96 4.38-7.453z" fill="#edc262"/><path d="M477 385c2.75.125 2.75.125 6 1 2.25 3 2.25 3 4 6l2 1 1.625 4.563.789 2.504L492 402h2l1.25 2.75c1.521 3.218 1.521 3.218 3.688 5.125 2.484 2.56 3.683 5.188 5.133 8.418.818 1.889.818 1.889 2.93 2.707l1 3h4l.367 1.934.508 2.504.492 2.496L514 433l2 1 1-3 .734 2.773 1.016 3.602.984 3.586c.948 3.118.948 3.118 3.285 4.266L525 446c2.01 3.112 3.635 6.253 5.258 9.578l1.305 2.672 1.191 2.516c1.912 3.428 3.984 5.059 7.246 7.234.188 2.625.188 2.625 0 5h2l1 3 3 1v4h3l1 5 3 1 2 7 3 1a195.97 195.97 0 0 1 3 7l3 4v2h2l1 2 2-4 1 10 3 1c1.074 1.961 2.061 3.971 3 6l2.188 3.625C580 530 580 530 580 534c-3.312.992-6.325 1.13-9.775 1.142l-3.52.021-3.791.013-5.912.053-14.562.097-8.175.057-7.693.037c-8.594.091-8.594.091-15.573 4.58l-1 2h-2l.003 3.055.049 73.507.024 35.547.019 30.972.012 16.409.007 15.429.006 5.677.001 7.723.009 2.293c-.015 5.16-.015 5.16-1.129 7.388-3.42.942-6.684 1.13-10.218 1.145l-3.073.019-3.283.003-3.394.01-7.088.007-10.883.039-6.885.006-3.302.022-3.045-.009-2.686.004C451 741 451 741 449 739l-1-7c-.841-1.996-1.477-3.477-3-5-.865-6.177-1.169-11.86 0-18l-.461-2.66c-.617-3.823-.679-7.546-.669-11.406l-.005-2.382.002-7.759-.003-5.425.005-11.36-.004-14.505v-11.204l-.002-5.345.007-7.5-.006-2.197c.018-4.497.384-8.839 1.019-13.292.251-2.179.251-2.179-.883-4.965-.067-1.561-.085-3.125-.062-4.687l.027-2.449L444 600h-1v-5l3-1-2-3a88.12 88.12 0 0 1-.16-7.406l.016-2.185.082-6.909.071-6.909.053-4.297c.031-3.063-.084-5.361-1.062-8.294a104.27 104.27 0 0 1-.5-4.25c-.406-3.935-.917-7.837-1.5-11.75-3.123.486-5.996.999-9 2l-5.332-.738c-10.164-.997-20.566-.275-30.728.47-3.559.241-6.517.253-9.94-.732 1-3 1-3 4-5l-1.863.035-2.449.027-2.426.035C381 535 381 535 378 534c-1.259-5.412-.466-8.086 1.965-12.918l1.895-3.906c2.953-6.179 6.589-11.856 10.762-17.285C394.12 498 394.12 498 395 495.5c1.031-2.577 2.159-4.429 4-6.5h2l.773-1.621C414.115 463.442 414.115 463.442 421 460a65.22 65.22 0 0 0 1.813-4.25c1.797-4.223 3.932-6.494 7.188-9.75a188.27 188.27 0 0 0 3.438-5.875c2.401-4.265 4.864-7.819 8.152-11.414 3.443-4.177 5.7-9.235 8.035-14.086 1.256-2.397 2.255-3.966 4.375-5.625h2l.797-1.668c8.215-15.924 8.215-15.924 14.203-20.332 2.68-.176 2.68-.176 5 0-3.778 6.13-7.724 12.1-11.937 17.938a463.24 463.24 0 0 0-10.816 15.688c-6.31 9.519-12.777 18.943-19.416 28.236-8.084 11.324-15.742 22.929-23.432 34.522l-11.434 17.121-5.38 8.038-3.54 5.277-4.963 7.412-1.515 2.25-1.384 2.075-1.21 1.805c-1.141 1.791-1.141 1.791-1.973 4.639l2.262-.034 21.184-.225 10.889-.118 10.523-.097 5.935-.092c6.338-.002 11.236.279 16.66 3.709 4.372 5.253 4.986 11.604 4.907 18.147l.008 2.409-.028 7.927.001 5.708-.038 15.451-.024 16.164-.064 30.588-.065 34.832L451 738h54l.028-17.989.156-58.757.087-35.634.084-31.056.037-16.446.049-15.478.005-5.682.035-7.758-.024-2.27c.084-5.099 1.307-8.017 4.542-11.931 6.194-3.888 12.586-3.403 19.723-3.328l3.693.006 7.708.041 11.784.047 7.502.031 3.552.013 3.328.029 2.91.021c2.995.15 5.854.594 8.8 1.14-4.023-6.642-8.367-12.978-12.937-19.25-24.376-33.479-47.062-68.174-69.987-102.652l-3.442-5.174-4.002-6.022-1.752-2.633-1.482-2.231c-.978-1.427-2.009-2.819-3.077-4.18C481 389 481 389 481 387l-4-2zm-33 163l1 2z" fill="#5f5f3c"/><path d="M877.101 594.759l2.624.013h2.972l3.217.031 3.287.009 10.424.062 7.055.027L924 595v2h2l.004 3.01.179 72.51.087 35.065.084 30.563.037 16.183.049 15.234.005 5.588.035 7.638-.024 2.226c.091 5.493 1.527 8.548 4.542 12.981 3.783 3.094 6.814 3.386 11.626 3.432l1.953.031 6.347.048 4.418.054 11.595.103 11.845.121L1002 802a57.58 57.58 0 0 1-4.766 8.063l-1.676 2.383L993.75 815l-3.824 5.434-1.978 2.804L959 865l-23.194 33.656-11.431 16.531-12.812 18.5-1.793 2.577c-2.808 4.016-5.639 7.96-8.769 11.736-3.282-1.094-3.662-1.541-5.531-4.254l-1.442-2.069-1.526-2.24-1.581-2.281L886 930l-3.234-4.687L875 914h3c4 4.343 4 4.343 4 7h2c1.227 1.801 1.227 1.801 2.625 4.313 2.938 5.098 6.283 9.753 9.836 14.438C898 942 898 942 898 944h3l.844-1.734c1.139-2.232 2.356-4.374 3.656-6.516l1.281-2.141L908 932h2l.285-1.719c.884-2.82 2.278-4.505 4.152-6.781 2.247-2.74 4.099-5.265 5.563-8.5h2v-2h2v-3h2l1-5h2l.25-1.75c.75-2.25.75-2.25 2.5-3.937 2.755-2.831 4.249-5.872 6.004-9.387C939 888 939 888 942 887v-3h2v-3h2v-4h2v-3h2c1.866-3.588 3.425-7.278 5-11h2l.793-1.703c1.324-2.519 2.86-4.736 4.52-7.047 2.744-3.853 5.275-7.759 7.645-11.852L971 841h2l.688-2.062c1.625-3.636 3.641-6.966 6.313-9.937h2l.758-2.156c1.372-3.142 3.071-5.596 5.117-8.344l2.055-2.781c1.394-1.83 2.838-3.622 4.328-5.375 2.04-2.258 2.04-2.258 1.742-5.344l-2.396.092-10.917.408-3.768.145c-6.62.243-13.211.399-19.835.275-2.147-.061-2.147-.061-4.085 1.08a176.3 176.3 0 0 1-5-1h-4c-7.744-.697-13.379-2.469-19-8l-1-2-2 1c-1.49-15.027-2.473-30.113-1.262-45.18.459-6.949.381-13.922.387-20.883l.007-2.076.001-5.959-.003-3.516c-.063-3.429-.063-3.429-.7-6.943-.437-3.51-.07-5.99.571-9.444.08-2.684.117-5.34.098-8.023l-.004-2.261-.031-7.09-.014-4.832L923 669h-1c-.125-7.625-.125-7.625 1-11 .092-1.666.128-3.335.129-5.003l.01-3.086-.006-3.333.003-3.434-.005-7.202.006-10.988-.004-7 .006-3.309c-.016-5.323-.202-10.401-1.139-15.644l-7.375-.062-2.117-.025c-3.881-.096-3.881-.096-7.508 1.088v-2l-2.895.254c-7.179.565-13.776.857-20.934-.293-2.199-.16-2.199-.16-3.785 1.143-2.021 2.763-1.756 4.871-1.748 8.273l-.008 1.969.028 6.543-.001 4.686.038 12.737.024 13.317.064 25.233.065 28.687.143 56.606L876 763l.035 4.605.027 5.582.025 2.791c.055 15.506.055 15.506-3.963 20.334l-1.555 1.926c-4.416 4.954-4.416 4.954-8.57 5.762l-3.156 1.02c-4.04 1.031-7.435 1.181-11.594 1.105l-3.922-.055L840 806l-6.652.035-4.285.027-2.17.025c-3.482.016-6.538-.191-9.893-1.088l-2 1c-2.537-.048-5.058-.195-7.59-.355-2.585.12-2.585.12-4.227 2.367L802 810c-5-5.75-5-5.75-5-8l2.338-.004 21.89-.128 11.252-.063 10.874-.078 4.133-.013c7.963.02 14.438-.099 20.513-5.714 3.991-5.279 4.148-10.245 4.145-16.681l.011-2.357.018-7.826.02-5.608.036-12.078.065-19.082.182-54.261.107-29.966.056-18.985.046-11.787.012-5.483.031-7.459-.008-2.214c.072-6.96.072-6.96 4.38-7.453z" fill="#d7c282"/><path d="M884.508 590.867l2.717-.006 2.9.014 2.971.01c28.449.199 28.449.199 34.756 5.521 3.398 4.483 2.72 9.724 2.523 15.094l-.043 3.09c-.095 4.89-.329 9.607-1.332 14.41l2 1-.465 1.949c-.693 3.948-.893 7.864-1.098 11.863l-.131 2.389L929 652l3 1v2h-2l.007 2.599.045 24.235.024 12.46.019 12.021.011 4.589.008 6.421.007 3.694C930 724 930 724 929 727l3-1-.988 1.511c-1.393 3.426-1.259 6.68-1.208 10.317l.009 2.27.062 7.152.027 4.859L930 764l3-1c-.73 12.6-.73 12.6-2.062 17.25-1.09 4.362-1.123 8.286-.937 12.75h2l1 5c9.125 1.354 9.125 1.354 18.188.438 1.813-.437 1.813-.437 3.522.031 2.967.688 5.706.625 8.751.594l3.871-.023 4.043-.039c21.943-.218 21.943-.218 29.625 1l1 2-25.505.207-11.844.095-11.438.078-4.356.043-6.118.031-3.513.027c-4.087-.609-6.084-1.804-9.227-4.481-3.511-5.132-4.58-8.959-4.481-15.207l-.01-2.419.037-7.978-.002-5.737.05-15.544.032-16.256.085-30.769.087-35.035L926 597h-2v-2l-20.88.372-7.109.125-10.194.186-3.232.051-2.973.06-2.631.047c-1.981-.057-1.981-.057-2.98 1.158-.103 2.436-.142 4.843-.138 7.28l-.009 2.337-.011 7.812-.015 5.577-.026 12.043-.053 19.048-.149 54.178-.088 29.897-.039 15.826-.044 14.9-.006 5.461-.03 7.473.017 2.168c-.072 5.493-1.002 11.328-4.79 15.535-4.908 4.229-8.426 5.719-14.856 5.693h-3.821l-4.113-.031-4.22-.009-11.087-.049-11.322-.04L797 802l1-2c9.757-1.841 20.091-1 30-1l-1-3c3.269-1.031 5.86-.964 9.25-.562l2.703.309L841 796v2l2.313-.062C846 798 846 798 849 799c6.468.558 11.431-.545 17-4l2-3-1-4 .5-2.691c.552-3.655.308-6.76-.062-10.434-.476-6.061-.111-11.281 1.086-17.219.438-2.44.585-4.622.539-7.094C869 747 869 747 869.625 744.25c.609-2.253.609-2.253-.587-4.081-1.224-2.558-1.282-4.301-1.268-7.126l.006-2.873.037-2.982.002-2.947c.032-5.189.342-10.123 1.186-15.24.035-1.666.05-3.334 0-5l-3 1 2-7h-3v-7l3-1 .438-3.687c.287-2.336.62-4.574 1.125-6.875.541-2.599.541-2.599.438-5.937 0-3.035.289-5.567 1-8.5l-2-1 .563-2.812c.679-3.201.679-3.201-.562-6.187l-3 2c-.187-2.312-.187-2.312 0-5l1.461-1.367c2.92-3.098 2.558-7.55 2.539-11.633-.752-3.348-.752-3.348-2-6-1.238-3.715-.706-6.188 0-10l1-1a178.27 178.27 0 0 0 .125-7.812l.012-2.197c-.006-3.465-.042-6.68-1.137-9.99h2l.125-3.312c.875-3.687.875-3.687 3.75-5.562 3.759-1.353 6.654-2.252 10.633-2.258z" fill="#7e7a52"/><path d="M444 433l1 2c-1.818 4.817-3.789 9.877-7.562 13.5-1.605 1.485-1.605 1.485-2.375 3.875-1.24 3.064-2.995 5.048-5.062 7.625-1.822 2.797-3.568 5.633-5.316 8.477C423 471 423 471 421.41 472.523c-1.585 1.473-1.585 1.473-2.355 3.895-1.209 2.96-2.713 4.607-4.93 6.895-3.132 3.408-5.248 6.49-7.156 10.676-3.428 7.118-8.661 13.33-13.542 19.495-2.149 2.737-4.012 5.336-5.427 8.517l-4 8 1.505-.496c3.469-.701 6.887-.606 10.409-.566l2.332.011 9.838.072 7.205.042 2.339.011c4.874-.003 9.607-.345 14.448-.935 2.686-.192 4.842.335 7.361 1.237l2.434.836L444 531l3 1c1.188 2.563 1.188 2.563 2 5h2c4.603 12.194 3.143 27.064 3.114 39.973v5.209l-.013 13.98-.008 14.67-.021 27.708-.022 31.575L454 735h49l.063-24.5.006-3.813-.326-45.456-.037-2.083-.191-10.348c-.367-19.64-.671-39.238.079-58.873.438-11.478.474-22.931.369-34.416l-.025-3.873-.035-3.384c.189-6.3.504-10.659 5.098-15.253h2v-2c10.63-1.723 21.108-2.193 31.875-2.187l3.706-.002c18.176.109 18.176.109 24.419 2.189l1-10c3.277 3.1 5.931 5.971 8 10v2l-2.307-.02-21.582-.135-11.094-.071-10.718-.058-4.077-.033c-10.089-.303-10.089-.303-19.222 3.317-3.227 4.136-3.43 7.884-3.392 12.946l-.018 2.407-.007 7.975-.026 5.722-.031 15.532-.051 16.243-.081 30.769-.154 55.134-.047 19.358-.03 12.023-.008 5.589-.018 7.609.003 2.251c-.017 3.09-.156 5.486-1.141 8.442h-54l-.044-17.59-.192-57.488-.111-34.86-.102-30.386-.049-16.087-.057-15.148-.011-5.553-.036-7.598.015-2.205c-.072-5.271-1.227-9.269-3.413-14.084-6.11-5.352-13.238-4.602-21.027-4.609l-4.073-.05-10.658-.079-10.9-.102L379 532c.799-4.87 2.839-8.176 5.617-12.176l1.455-2.139 4.803-6.998 3.36-4.923 5.283-7.737 12.728-18.774 1.798-2.672 6.936-10.314L444 433z" fill="#d4bd7b"/><path d="M477 385c2.75.125 2.75.125 6 1 2.25 3 2.25 3 4 6l2 1 1.625 4.563.789 2.504L492 402h2l1.25 2.75c1.521 3.218 1.521 3.218 3.688 5.125 2.484 2.56 3.683 5.188 5.133 8.418.818 1.889.818 1.889 2.93 2.707l1 3h4l.367 1.934.508 2.504.492 2.496L514 433l2 1 1-3 .734 2.773 1.016 3.602.984 3.586c.948 3.118.948 3.118 3.285 4.266L525 446c2.01 3.112 3.635 6.253 5.258 9.578l1.305 2.672 1.191 2.516c1.912 3.428 3.984 5.059 7.246 7.234.188 2.625.188 2.625 0 5h2l1 3 3 1v4h3l1 5 3 1 2 7 3 1a195.97 195.97 0 0 1 3 7l3 4v2h2l1 2 2-4 1 10 3 1c1.074 1.961 2.061 3.971 3 6l2.188 3.625C580 530 580 530 580 534c-3.312.992-6.325 1.13-9.775 1.142l-3.52.021-3.791.013-5.912.053-14.562.097-8.175.057-7.693.037c-8.594.091-8.594.091-15.573 4.58l-1 2h-2l.003 3.055.049 73.507.024 35.547.019 30.972.012 16.409.007 15.429.006 5.677.001 7.723.009 2.293c-.015 5.16-.015 5.16-1.129 7.388-3.42.942-6.684 1.13-10.218 1.145l-3.073.019-3.283.003-3.394.01-7.088.007-10.883.039-6.885.006-3.302.022-3.045-.009-2.686.004C451 741 451 741 449 739c-.181-2.572-.236-5.034-.203-7.605l.007-2.406.06-8.024.029-5.735.106-15.607.1-16.296.202-30.875.225-35.143L450 545h1v193h54l.028-17.989.156-58.757.087-35.634.084-31.056.037-16.446.049-15.478.005-5.682.035-7.758-.024-2.27c.084-5.099 1.307-8.017 4.542-11.931 6.194-3.888 12.586-3.403 19.723-3.328l3.693.006 7.708.041 11.784.047 7.502.031 3.552.013 3.328.029 2.91.021c2.995.15 5.854.594 8.8 1.14-4.023-6.642-8.367-12.978-12.937-19.25-24.376-33.479-47.062-68.174-69.987-102.652l-3.442-5.174-4.002-6.022-1.752-2.633-1.482-2.231c-.978-1.427-2.009-2.819-3.077-4.18C481 389 481 389 481 387l-4-2z" fill="#6b6a44"/><path d="M476 387c-3.778 6.13-7.724 12.1-11.937 17.938a463.24 463.24 0 0 0-10.816 15.688c-6.31 9.519-12.777 18.943-19.416 28.236-8.084 11.324-15.742 22.929-23.432 34.522l-11.434 17.121-5.38 8.038-3.54 5.277-4.963 7.412-1.515 2.25-1.384 2.075-1.21 1.805c-1.141 1.791-1.141 1.791-1.973 4.639h61v1h-62c-1.117-5.583-.447-7.118 1.965-11.922l1.895-3.902c2.953-6.179 6.589-11.856 10.762-17.285C394.12 498 394.12 498 395 495.5c1.031-2.577 2.159-4.429 4-6.5h2l.773-1.621C414.115 463.442 414.115 463.442 421 460a65.22 65.22 0 0 0 1.813-4.25c1.797-4.223 3.932-6.494 7.188-9.75a188.27 188.27 0 0 0 3.438-5.875c2.401-4.265 4.864-7.819 8.152-11.414 3.443-4.177 5.7-9.235 8.035-14.086 1.256-2.397 2.255-3.966 4.375-5.625h2l.797-1.668C467.614 386.365 467.614 386.365 476 387z" fill="#586148"/><path d="M580 535c-2.778 3.82-6.596 4.148-11 5l-1-1a166.12 166.12 0 0 0-7.062.438l-3.91.309L554 540v-2l-2.187 1.063c-3.173 1.058-4.626.692-7.812-.062l-3 1c-1.335.08-2.674.108-4.012.098l-2.295-.01-2.381-.025-2.416-.014L524 540l1-3c-3.626.57-5.255 1.924-7.75 4.563l-1.859 1.941L514 545v-3h-1l-.875 2.75c-.89 2.572-1.84 4.863-3.125 7.25l3 1-1 5 2 1-1.562 1.938c-1.65 3.515-1.207 5.392-.715 9.14.608 6.401.378 12.873.34 19.298l-.014 4.426L511 605c0 2.557.222 4.851.563 7.375.413 3.478.268 6.201-.562 9.625l1 2c0 3.052-.103 6.087-.219 9.137l-.137 3.689-.289 7.664-.352 15.193C511 663 511 663 510.438 666.375c-.479 3.969-.176 7.441.309 11.391.41 3.605.242 7.231.219 10.855l-.027 6.816-.025 3.471-.01 3.338-.016 3.052c.101 2.414.502 4.382 1.114 6.701-.375 2.289-.375 2.289-1 4.625-1.021 3.272-1.021 3.272 0 6.375-.433 4.397-1.055 8.682-2 13h-1V542h2l1-3c5.551-5.35 12.002-4.619 19.352-4.645l3.914-.057 8.175-.082 10.464-.114 10.01-.121 3.791-.044 3.52-.022 3.094-.024c2.397.098 4.393.419 6.681 1.109z" fill="#556454"/><path d="M1000 805h2c-.51 4.151-1.59 5.981-4.562 8.875-3.092 3.256-3.092 3.256-3.562 7.75L994 825l-3.556 4.305c-2.501 2.936-4.553 6.18-6.694 9.383-4.585 6.761-9.418 13.115-14.75 19.313l-2.008 2.344c-4.573 5.281-4.573 5.281-6.562 7.063-1.581 1.573-1.581 1.573-2.336 3.938-1.775 4.312-4.974 7.44-8 10.938-1.98 2.571-2.994 4.701-4.094 7.719l-1.937 2.375c-2.374 3.021-3.563 6.103-5.062 9.625-.982 1.018-1.976 2.025-3 3v3c-1.645 1.613-1.645 1.613-3.812 3.313-3.548 2.969-5.317 5.411-7.187 9.688-1.222 1.805-2.505 3.548-3.816 5.289-1.237 1.684-1.237 1.684-2.062 3.617-1.462 2.73-3.38 4.712-5.496 6.969-3.28 3.569-6.038 7.045-8.625 11.125-1.75 1.875-1.75 1.875-3 3-3.611-.883-5.552-1.451-7.937-4.375C893 944 893 944 894 940l5 7c3.644-1.215 4.174-2.3 6.301-5.426l1.94-2.823 2.072-3.063 4.352-6.348 2.208-3.235 9.315-13.355 18.204-26.391 9.732-14.23 8.162-11.949 16.96-24.45 15.588-22.329 1.991-2.87 1.784-2.576C999 806 999 806 1000 805z" fill="#616549"/><path d="M871 652h1l.207 54.059.095 25.101.075 21.88.047 11.583.03 10.908.045 5.901c-.037 7.859-.604 11.593-6.126 17.23-6.491 4.483-13.318 3.976-20.934 3.826l-4.203-.021-10.988-.124-11.242-.099L797 802l1-2c9.757-1.841 20.091-1 30-1l-1-3c3.269-1.031 5.86-.964 9.25-.562l2.703.309L841 796v2l2.313-.062C846 798 846 798 849 799c6.468.558 11.431-.545 17-4l2-3-1-4 .5-2.691c.552-3.655.308-6.76-.062-10.434-.476-6.061-.111-11.281 1.086-17.219.438-2.44.585-4.622.539-7.094C869 747 869 747 869.625 744.25c.609-2.253.609-2.253-.587-4.081-1.224-2.558-1.282-4.301-1.268-7.126l.006-2.873.037-2.982.002-2.947c.032-5.189.342-10.123 1.186-15.24.035-1.666.05-3.334 0-5l-3 1 2-7h-3v-7l3-1 .438-3.687c.287-2.336.62-4.574 1.125-6.875.541-2.599.541-2.599.438-5.937 0-3.035.289-5.567 1-8.5l-2-1 2-12z" fill="#62623e"/><path d="M927 597c2.56 3.208 3.373 4.848 3.328 8.992l-.016 2.887-.062 2.996-.016 2.973c-.052 4.816-.24 9.42-1.234 14.152l2 1-.465 1.949c-.693 3.948-.893 7.864-1.098 11.863l-.131 2.389L929 652l3 1v2h-2l.007 2.599.045 24.235.024 12.46.019 12.021.011 4.589.008 6.421.007 3.694C930 724 930 724 929 727l3-1-.988 1.511c-1.393 3.426-1.259 6.68-1.208 10.317l.009 2.27.062 7.152.027 4.859L930 764l3-1c-.73 12.6-.73 12.6-2.062 17.25-1.09 4.362-1.123 8.286-.937 12.75h2l1 5c9.125 1.354 9.125 1.354 18.188.438 1.813-.437 1.813-.437 3.522.031 2.967.688 5.706.625 8.751.594l3.871-.023 4.043-.039c21.943-.218 21.943-.218 29.625 1l1 2-25.505.207-11.844.095-11.438.078-4.356.043-6.118.031-3.513.027c-4.833-.72-7.902-2.762-10.877-6.621-1.733-3.671-1.757-6.927-1.71-10.902l-.008-2.438.028-8.079-.001-5.795.038-15.73.024-16.44.064-31.13.065-35.441L927 597z" fill="#5e6244"/><path d="M444 550h2l.076 2.563.296 9.595.125 4.119.186 5.988.111 3.618.705 9.419c.729 8.515.734 17.039.816 25.58l.063 5.533.153 14.688.094 9.072L449 731l-2 1c-3.292-7.322-3.487-15.196-2-23l-.461-2.66c-.617-3.823-.679-7.546-.669-11.406l-.005-2.382.002-7.759-.003-5.425.005-11.36-.004-14.505v-11.204l-.002-5.345.007-7.5-.006-2.197c.018-4.497.384-8.839 1.019-13.292.251-2.179.251-2.179-.883-4.965-.067-1.561-.085-3.125-.062-4.687l.027-2.449L444 600h-1v-5l3-1-2-3a88.12 88.12 0 0 1-.16-7.406l.016-2.185.082-6.909.071-6.909.053-4.297c.031-3.063-.084-5.361-1.062-8.294.438-2.687.438-2.687 1-5z" fill="#566351"/><path d="M506 541h1l.443 76.953.205 35.728.177 31.131.095 16.493.086 15.508.035 5.706.04 7.762.021 2.305c.011 5.186.011 5.186-1.103 7.414-3.42.942-6.684 1.13-10.218 1.145l-3.073.019-3.283.003-3.394.01-7.088.007-10.883.039-6.885.006-3.302.022-3.045-.009-2.686.004C451 741 451 741 449 739c-.181-2.572-.236-5.034-.203-7.605l.007-2.406.06-8.024.029-5.735.106-15.607.1-16.296.202-30.875.225-35.143L450 545h1v193h54l1-197z" fill="#7b7446"/><path d="M308 1091v2h232l-1 3-88.231-.28-10.438-.037-2.099-.007-33.558-.103-34.484-.115-19.348-.061-18.241-.064-6.666-.017c-12.145-.013-23.924-.408-35.936-2.316v-1l7.875-.5 2.262-.145c5.637-.355 5.637-.355 7.863-.355z" fill="#a9b7bc"/><path d="M449 414l1 3c-.891 1.648-.891 1.648-2.25 3.375l-4.187 6.063c-1.356 2.223-2.787 4.193-4.375 6.25-2.923 3.832-5.383 7.846-7.793 12.016-1.354 2.23-2.703 4.309-4.395 6.297h-2l-.551 1.934-.762 2.504-.738 2.496L422 460l-3 1c-.706 1.65-1.368 3.32-2 5a75.09 75.09 0 0 1-3.25 4.188 72.3 72.3 0 0 0-6.687 9.813c-2.607 4.518-5.707 8.154-9.328 11.895-1.896 2.301-2.681 4.33-3.734 7.105-1.126 1.92-2.295 3.816-3.5 5.688l-1.844 2.887C387 510 387 510 385 512l-1.375 3.313c-1.42 3.401-2.988 6.05-5.625 8.688-2.75.813-2.75.813-5 1 1.453-3.303 3.455-6.094 5.57-9.004 3.25-4.538 6.367-9.174 9.18-13.996 1.25-2 1.25-2 3.25-3l.355-1.695c.927-3.315 2.853-5.473 4.957-8.18 2.398-3.1 4.712-6.162 6.855-9.445C405 477 405 477 407 476c1.05-1.85 1.05-1.85 2-4l2-4h2l.75-1.625c1.546-2.938 3.409-5.614 5.25-8.375 1.034-1.992 2.003-4.007 2.965-6.035l.973-2.027.965-2.035c1.15-1.994 2.443-3.318 4.098-4.902l1.313-2.187c1.451-2.419 2.98-4.574 4.688-6.812 2.795-3.678 5.149-7.452 7.375-11.5 1.89-2.908 4.113-5.12 6.625-7.5l1-1z" fill="#52645a"/><path d="M451 540c5.839 8.758 3.138 26.528 3.114 36.973v5.209l-.013 13.98-.008 14.67-.021 27.708-.022 31.575L454 735h49l-1 2h-50l-1-197z" fill="#e5cb82"/><path d="M926 791l1.75 2.25c3.598 4.501 3.598 4.501 8.25 7.75 2.093.121 4.189.177 6.286.205l1.952.03 6.396.081 4.431.063 11.669.153 11.904.161L1002 802c-1.413 2.887-2.941 5.473-4.801 8.098l-1.695 2.403-1.817 2.562-15.062 21.688-1.712 2.508L973 845l-2-4h2l.688-2.062c1.625-3.636 3.641-6.966 6.313-9.937h2l.758-2.156c1.372-3.142 3.071-5.596 5.117-8.344l2.055-2.781c1.394-1.83 2.838-3.622 4.328-5.375 2.04-2.258 2.04-2.258 1.742-5.344l-2.396.092-10.917.408-3.768.145c-6.62.243-13.211.399-19.835.275-2.147-.061-2.147-.061-4.085 1.08a176.3 176.3 0 0 1-5-1h-4c-7.417-.668-14.007-2.086-19-8-.924-2.534-1-4.255-1-7z" fill="#c5b986"/><path d="M809 820c4.019 3.767 7.073 7.741 10.125 12.313l2.914 4.301 1.489 2.209L830.5 849l2.762 4.016 1.376 2.002 4.006 5.842L861 893l25 36-2 1c-13-14.462-13-14.462-13-18h-2l-1-5h-2v-2h-2l-2.437-4.312-1.371-2.426C859 896 859 896 858 893h-2c-1.402-1.793-1.402-1.793-2.937-4.187l-1.605-2.496L850 884l-1.75-2.75c-1.309-2.355-2.312-4.726-3.25-7.25h-2c-3-4.385-3-4.385-3-7h-2c-1.176-1.831-2.266-3.717-3.312-5.625-1.983-3.522-3.847-6.812-6.562-9.812-2.195-2.647-2.827-4.18-3.125-7.562h-2c-2.542-2.712-4.298-5.481-5.875-8.812-1.848-3.903-4.223-7.094-6.953-10.426C809 823 809 823 809 820z" fill="#666a4d"/><path d="M885 597h38c1.87 4.674 2.294 7.913 2.285 12.781l.02 2.353.03 7.796.035 5.594.068 15.186.077 15.888.118 26.682.143 30.853.144 29.673.061 12.631.062 14.873.025 5.46.027 7.449.016 2.186c.001 3.661-.239 7.035-1.112 10.595h-1c-1.49-15.027-2.473-30.113-1.262-45.18.459-6.949.381-13.922.387-20.883l.007-2.076.001-5.959-.003-3.516c-.063-3.429-.063-3.429-.7-6.943-.437-3.51-.07-5.99.571-9.444.08-2.684.117-5.34.098-8.023l-.004-2.261-.031-7.09-.014-4.832L923 669h-1c-.125-7.625-.125-7.625 1-11 .092-1.666.128-3.335.129-5.003l.01-3.086-.006-3.333.003-3.434-.005-7.202.006-10.988-.004-7 .006-3.309c-.016-5.323-.202-10.401-1.139-15.644l-7.375-.062-2.117-.025c-3.881-.096-3.881-.096-7.508 1.088v-2l-3.105.254-4.082.309-2.041.17c-3.789.277-7.09.233-10.771-.732v-1z" fill="#e4ca84"/><path d="M478.836 385.972c3.338 1.586 4.857 4.456 6.789 7.477l1.299 1.97 4.076 6.268 2.734 4.17 6.159 9.456 2.283 3.392C505 422.802 505 422.802 505 425h-4l-1.25-2.625c-1.688-3.425-1.688-3.425-3.937-6.562C494 413 494 413 494 410h-2l-2.93-5.371c-.984-1.795-.984-1.795-3.07-2.629v-2h-2l-3-8h-4c-2.978 2.978-4.652 4.842-5.867 8.891-1.309 3.594-2.988 5.495-5.633 8.234-2.742 2.858-4.908 5.246-6.5 8.875-6.464 12.488-6.464 12.488-14 15 1.496-4.397 3.887-7.866 6.625-11.562 3.22-4.422 6.368-8.866 9.375-13.437 3.041-4.605 6.173-9.132 9.375-13.625l1.301-1.832c4.679-6.533 4.679-6.533 7.16-6.571z" fill="#d0be84"/><path d="M520.146 533.886h3.761l4.047.016 4.153.004 10.909.025 11.141.02L576 534v1l-2.199.011-20.568.173-10.573.087-12.168.12-3.817.004c-8.65.1-8.65.1-15.675 4.606l-1 2h-2v190h-1l-.155-75.285-.071-34.955-.056-30.461-.035-16.134-.022-15.178-.018-5.578-.003-7.602-.026-2.24c.028-3.148.207-5.256 1.797-8.009 3.304-3.238 7.329-2.681 11.736-2.672z" fill="#5c6042"/><path d="M872 787h1c.518 4.141.825 6.675-1.418 10.277-4.99 5.884-4.99 5.884-9.582 6.723l-3.266 1.055c-3.989 1.01-7.378 1.145-11.484 1.07l-3.922-.055L840 806l-6.652.035-4.285.027-2.17.025c-3.482.016-6.538-.191-9.893-1.088l-2 1c-2.537-.048-5.058-.195-7.59-.355-2.585.12-2.585.12-4.227 2.367L802 810c-5-5.75-5-5.75-5-8l2.338-.004 21.89-.128 11.252-.063 10.874-.078 4.133-.013c7.963.02 14.438-.099 20.513-5.714 2.188-2.894 3.341-5.441 4-9z" fill="#c8ba81"/><path d="M412 477l2 1-12.734 19.062-6.923 10.341-3.599 5.367-5.24 7.827-1.632 2.424-1.499 2.248-1.32 1.97c-1.216 1.888-1.216 1.888-2.053 4.761h61v1h-62c-1.006-5.031-1.072-5.747 1-10l.77-1.727c2.096-3.873 4.818-7.335 7.422-10.877 2.191-3.016 4.177-5.996 5.941-9.283C395 498 395 498 398 497a86.75 86.75 0 0 0 2-4 123.17 123.17 0 0 1 2.5-3.75l1.281-1.859L405 486h2l.438-1.812c1.287-5.004 1.287-5.004 4.563-7.187z" fill="#6d6a40"/><path d="M515 440c3.108 2.915 5.424 5.93 7.742 9.5l2.112 3.223L527 456l24.313 35.5 1.698 2.428 8.524 11.947 1.704 2.361 3.208 4.387 1.421 1.971 1.253 1.709C570 518 570 518 570 522c-3.83-3.566-6.339-7.017-8-12h-2c-1.724-2.514-2.958-4.884-4-7.75l-1-2.25-3-1v-3h-2c-1.508-1.863-1.508-1.863-3.125-4.312l-1.633-2.426C544 487 544 487 544 484h-2c-1.437-2.152-1.437-2.152-3-4.937-1.861-3.686-1.861-3.686-5-6.062v-3h-2v-3h-2l-.875-1.937c-.953-2.215-.953-2.215-3.125-3.062-.731-2.314-1.401-4.648-2-7h-2c-2.042-2.905-3-4.401-3-8h-2c-2-3-2-3-2-7z" fill="#cfbd82"/><path d="M1001 812l2 2-2.25 3.063c-1.745 2.438-3.347 4.885-4.812 7.5-1.839 3.262-3.862 6.324-5.937 9.438l-.871 1.871c-1.879 3.544-4.588 6.433-7.156 9.496-2.065 2.588-2.065 2.588-3.453 5.637-1.622 3.199-3.459 5.436-5.895 8.059l-2.414 2.605c-3.884 4.097-7.736 7.88-12.211 11.332.125-2.687.125-2.687 1-6 1.344-1.176 2.703-2.34 4.133-3.41 10.224-8.705 17.861-21.89 25.105-33.059C990 828 990 828 991.707 826.332c1.581-1.365 1.581-1.365 1.668-4.145.848-4.327 2.599-6.014 5.625-9.187l2-1z" fill="#53635b"/><path d="M818 831c4.219 1.52 5.73 4.229 8.063 7.938 2.128 3.361 4.088 6.299 6.938 9.063.688 2.188.688 2.188 1 4h2c1.461 2.647 2 3.894 2 7l3 1c2.746 2.253 4.087 4.83 5.625 8l1.289 2.625C849 873 849 873 850 876l3 1c1.754 2.363 1.754 2.363 3.563 5.313l1.816 2.926c1.305 2.224 2.511 4.437 3.621 6.762h2l1 6h2c1.627 2.138 3.14 4.268 4.625 6.5l1.273 1.879L876 911l-2 2-26.365-37.665-3.334-4.753-12.863-18.644-1.92-2.814L824 841l-1.8-2.652-1.665-2.469-1.484-2.197C818 832 818 832 818 831z" fill="#d4c07e"/><path d="M449 732h1v6h55v-3h2l1-3c.125 5.75.125 5.75-1 8-3.42.942-6.684 1.13-10.218 1.145l-3.073.019-3.283.003-3.394.01-7.088.007-10.883.039-6.885.006-3.302.022-3.045-.009-2.686.004C451 741 451 741 449 739c-.125-3.625-.125-3.625 0-7z" fill="#6d7054"/><path d="M870 681h1l.104 22.974.047 10.667.044 12.257.031 3.879v3.579l.013 3.163C871 740 871 740 869 742c-.938-5.54-1.152-10.886-1.125-16.5l-.012-2.473A87.88 87.88 0 0 1 869 709c.035-1.666.05-3.334 0-5l-3 1 2-7h-3v-7l3-1 .438-3.937c.438-3.937.438-3.937 1.563-5.062z" fill="#5b6249"/><path d="M431 536l3.75 1.063L438 538c-4.29 2.86-6.369 2.958-11.332 2.262-10.164-.997-20.566-.275-30.728.47-3.559.241-6.517.253-9.94-.732v-2c9.798-1.902 19.228-2.173 29.178-2.014l2.892.041 2.586.054c9.544-.333 9.544-.333 10.343-.082z" fill="#5a6250"/><path d="M444 653h2l-.015 2.316c-.032 8.57.157 17.119.453 25.684l.119 3.887.127 3.738.111 3.352c.134 2.963.134 2.963.728 5.586.904 4.619.377 9.322.165 14l-.107 3.154-.131 3.037-.115 2.76c-.345 2.56-1.045 4.267-2.335 6.486-.655-6.226-1.178-11.815 0-18l-.463-2.444c-.761-5.033-.66-9.997-.635-15.08l.004-3.337.031-10.514.014-7.145L444 653z" fill="#53655a"/><path d="M441 535c3 0 3 0 5.159 1.668 2.223 2.817 2.329 4.105 2.295 7.652l-.001 3.215-.063 3.451-.017 3.548-.123 11.218-.055 7.605L448 592h-1c-.888-9.243-1.289-18.471-1.562-27.75l-.131-4.172L445 550h-2l-2-11h-2v-2h2v-2z" fill="#5d644b"/><path d="M956.703 798.742c5.252.589 10.583.31 15.86.258 22.645-.102 22.645-.102 28.438 1l1 2-25.712.104-11.939.047-11.515.039-4.399.022-6.149.016-3.54.013C936 802 936 802 934 800c5.075-.712 9.868-1 15-1 3.105-1.035 4.574-.77 7.703-.258z" fill="#5e6854"/><path d="M467 399c2.625-.187 2.625-.187 5 0-1.401 4.255-3.426 6.834-6.5 10.063-2.73 2.877-4.903 5.305-6.5 8.938-6.464 12.488-6.464 12.488-14 15 1.496-4.397 3.887-7.866 6.625-11.562 4.638-6.369 9.048-12.852 13.375-19.437l2-3z" fill="#dfc273"/><path d="M928 710c2.247 3.37 2.246 4.561 2.188 8.5l-.02 2.906C930 724 930 724 929 727l3-1-.988 1.511c-1.393 3.426-1.259 6.68-1.208 10.317l.009 2.27.062 7.152.027 4.859L930 764l3-1-.375 6.125-.211 3.445c-.409 3.384-1.224 6.246-2.414 9.43l-2-1v-71z" fill="#5b6349"/><path d="M431 444l1 3h2c-1.666 3.573-3.751 6.785-5.914 10.078l-1.135 1.732-3.576 5.44-2.43 3.703L415 477c-1.173-3.519-.842-3.976.688-7.187l1.133-2.406L418 465l1.055-2.156 2.016-4c.834-1.655 1.605-3.342 2.367-5.031 1.772-3.189 3.926-5.314 6.563-7.812l1-2z" fill="#666945"/><path d="M870 743h1l.055 16.65.021 5.656.022 8.162.016 2.526c0 5.092-.382 9.964-1.113 15.005h-3l.563-3.562c.505-4.343.26-8.399-.125-12.75-.48-5.994-.1-11.153 1.086-17.027.441-2.461.585-4.668.539-7.16-.051-2.833.054-4.848.938-7.5z" fill="#59644d"/><path d="M571 521c3.277 3.1 5.931 5.971 8 10v2l-59-1v-1h50l1-10z" fill="#d8c27c"/><path d="M504 741c-2 2-2 2-5.336 2.16l-4.039-.098c-4.824-.227-4.824-.227-9.57.435-2.26.552-4.208.6-6.531.565l-2.531-.023-2.617-.039-5.164-.062-2.303-.035c-1.995-.026-1.995-.026-3.908 1.098l-1-2-2.875.125C455 743 455 743 453 741l20.825-.482 7.089-.166 10.172-.231 3.217-.082 2.972-.061 2.624-.061C502 740 502 740 504 741z" fill="#586860"/><path d="M882.204 590.53l2.402.044 2.707.023 2.875.09 2.957.051L902 591l2.596.083c14.658.511 14.658.511 20.404 2.917l1 2-50-1c4-4 4-4 6.204-4.47z" fill="#666f5b"/><path d="M540.75 528.813l3.996.002c7.471.033 14.83.343 22.254 1.186v1l-1.73.018-17.911.245-6.675.084-9.622.142-2.99.019c-6.92.146-13.022.843-18.447 5.555L508 539l-2 2 1-7 3-1v-2c10.326-1.631 20.277-2.286 30.75-2.187z" fill="#e5c670"/><path d="M477 386c1.828.121 1.828.121 4 1 1.922 2.285 1.922 2.285 3.75 5.063l1.859 2.785L488 397l-1 2c-3.243-2.39-5.509-4.205-7-8-4.274 1.583-6.265 4.506-9 8l-3-1 3.938-5.437 2.215-3.059C476 387 476 387 477 386z" fill="#cbc299"/><path d="M909 936c1 2 1 2-.125 5.813-1.591 4.062-3.599 6.354-6.875 9.188-3.611-.883-5.552-1.451-7.937-4.375C893 944 893 944 894 940l5 7c3.796-1.265 4.487-2.782 6.688-6.062l1.887-2.785L909 936z" fill="#5e6a5c"/><path d="M988 822c1 2 1 2 .328 4.059l-1.078 2.379-1.047 2.371c-1.188 2.164-2.444 3.491-4.203 5.191l-1 2.563C980 841 980 841 977 843l-2-1c1.6-4.963 4.525-8.702 7.625-12.812l1.563-2.1L988 822z" fill="#696744"/><path d="M828 795l6.563.438 3.629.309L841 796v2h5l1 2h-19l-1-4 1-1z" fill="#556150"/><path d="M580 535c-2.778 3.82-6.596 4.148-11 5l-1-1a166.12 166.12 0 0 0-7.062.438l-3.91.309L554 540l1-3 1.801-.148c5.68-.512 11.175-1.36 16.754-2.547 2.486-.31 4.087-.084 6.445.695z" fill="#526359"/><path d="M466 390l3 1-1.574 1.906c-3.285 4.032-6.453 7.954-9.051 12.469-2.225 3.752-4.586 5.51-8.375 7.625.188-2.25.188-2.25 1-5l2.188-1.687c3.47-2.853 5.138-5.974 7.285-9.875 1.587-2.532 3.344-4.41 5.527-6.437z" fill="#4f6059"/><path d="M444 535c2.552.936 3.764 1.589 5.134 3.977 1.227 4.283 1.002 8.272.842 12.698l-.076 2.804-.276 8.833-.172 6.002L449 584h-1l-.018-1.695-.245-17.421-.084-6.507-.142-9.338-.019-2.952-.06-2.73-.034-2.409c-.243-2.354-.243-2.354-3.399-3.949v-2z" fill="#5e603f"/><path d="M873.375 540.875l3.773.055L880 541v2h15v1h-35v-1c4.624-1.807 8.425-2.218 13.375-2.125z" fill="#e4e5e5"/><path d="M412 477l2 1-6.836 10.254L406 490l-8 12c-1.141-3.711-1.141-3.711.125-6.312L400 493l1.246-1.875L405 486h2l.438-1.812c1.287-5.004 1.287-5.004 4.563-7.187z" fill="#686334"/><path d="M798 803h26v1l-3.375.438c-3.446.346-3.446.346-5.625 1.563l-7.59-.355c-2.585.12-2.585.12-4.227 2.367L802 810c-4-4.75-4-4.75-4-7z" fill="#d7ca96"/><path d="M446 424l4 1-5.75 8.75-1.633 2.5c-2.602 3.935-5.053 7.601-8.617 10.75v-4h2l2-5h2l.313-2.187c.755-3.09 1.843-5.23 3.688-7.812h2v-4z" fill="#666137"/><path d="M869 682h1l.25 9.25.102 2.645c.1 6.521.1 6.521-2.367 9.715L866 705l2-7h-3v-7l3-1 1-8z" fill="#56624e"/><path d="M880.218 591.865l2.487.061 2.655.098 2.741.076 8.65.276 5.871.172L917 593v1l-3.732.06-13.675.257-5.925.104-8.504.164-2.686.035-2.487.06-2.194.04c-2.049.136-2.049.136-3.797 2.278h-3c1-3 1-3 2.799-4.179 2.343-.874 3.931-1.033 6.419-.956z" fill="#5a6452"/><path d="M447 532c1.188 2.563 1.188 2.563 2 5h2c.942 5.527 1.121 10.838 1.063 16.438l-.014 2.506L452 562h-1l-.113-3.437c-.161-11.221-.161-11.221-3.887-21.562-2.277-1.76-4.348-2.799-7-4 3.625-2.125 3.625-2.125 7-1z" fill="#d9c480"/><path d="M939 898l1 3-3 2 2-5zm-5 4l3 4c-5.143 6.571-5.143 6.571-9 8 .262-4.457.577-6.515 3.563-9.937L934 902z" fill="#5e644c"/><path d="M938 804h38l1 2-1.804-.016-8.071-.047-2.84-.025-2.715-.01-2.507-.016c-2.127-.02-2.127-.02-4.063 1.114a176.3 176.3 0 0 1-5-1h-4l-8-1v-1z" fill="#ddc582"/><path d="M386 538l11.853-.11 6.018-.066 3.809-.02 3.523-.032C414 538 414 538 416 540l-12.75.563-3.656.17-3.516.146-3.237.143c-2.508-.019-4.463-.277-6.841-1.022v-2z" fill="#52615c"/><path d="M1000 805h2c-.523 4.06-1.58 6.097-4.375 9.063-1.876 2.015-3.627 3.94-5.227 6.184L991 822h-2c1.472-4.313 3.766-7.718 6.5-11.312l1.223-1.666c1.04-1.382 2.154-2.707 3.277-4.021z" fill="#716e4a"/><path d="M872 787h1c.518 4.14.758 6.68-1.348 10.348-1.763 2.196-3.379 3.987-5.652 5.652-3.437 0-3.437 0-6-1l1.688-1.25L864 799l2.563-1.687c3.311-3.141 4.068-5.987 5.438-10.312z" fill="#cab875"/><path d="M931 763h2l-.375 6.125-.211 3.445c-.409 3.384-1.224 6.246-2.414 9.43-2-2-2-2-2.047-5.152l.297-3.785.266-3.777C929 766 929 766 931 763z" fill="#556453"/><path d="M875 913c3.356 1.389 5.073 2.917 7 6v2h2l6 11-2 1-6.5-9.437-1.879-2.721-1.777-2.588-1.65-2.396C875 914 875 914 875 913z" fill="#d5bf7c"/><path d="M510 535l2 1c0 3 0 3-2 6h-2v26h-1l-.165-12.17-.062-4.138-.067-5.958-.048-3.618c.366-3.351 1.066-4.692 3.341-7.116z" fill="#5f613f"/><path d="M463 402l2 1-14 21-1-3 1-2h2l.25-1.613c1.031-3.28 2.816-5.74 4.75-8.574l2.188-3.23C462 403 462 403 463 402z" fill="#6a6538"/><path d="M477 385c2.75.125 2.75.125 6 1 2.25 3 2.25 3 4 6l2 1c1.794 3.494 2.117 5.286 1 9l-4.5-6.375-1.301-1.828C481 389.227 481 389.227 481 387l-4-2z" fill="#606750"/><path d="M571 521c3.277 3.1 5.931 5.971 8 10v2c-5.75.125-5.75.125-8-1l.563-2.687c.418-3.164.245-5.261-.562-8.312z" fill="#cbbf8c"/><path d="M220 155c-1.333 3.588-2.831 6.836-5 10h-2v4c-2.5 1.75-2.5 1.75-5 3l.813-1.613 2.625-5.367 1.563-3.207 1.563-3.23c1.602-2.878 2.159-3.582 5.438-3.582z" fill="#829398"/><path d="M918 928l2 2-10 11c-1-3-1-3-.5-5.375 2.083-3.645 4.996-5.423 8.5-7.625z" fill="#5e6956"/><path d="M804 809l1 3 3 1 2.938 5.309c1.105 2.016 1.105 2.016 4.063 3.691.949 2.164.949 2.164 1.688 4.625l.762 2.477L818 831c-3.977-3.598-6.776-7.832-9.75-12.25l-1.535-2.258L803 811l1-2z" fill="#cfc18a"/><path d="M505 425c4.153 3.674 7.234 8.224 10 13v2h-3c-4-5.257-4-5.257-4-8h-2l-1-7z" fill="#d1be7e"/><path d="M1154 279c4.122 3.768 7.631 7.889 10 13l-1 2-3-1v-2h-2l-2-7h-3l1-5z" fill="#77888e"/><path d="M859 802l4 1c-5.104 3.092-8.921 3.382-14.687 3.188l-2.299-.041L840 806h-3v-2l1.912-.076 8.526-.362 3.01-.119 2.861-.127 2.65-.111c2.034.013 2.034.013 3.041-1.205z" fill="#ddc379"/><path d="M870 640h1v18l-2-3-3 2c-.187-2.312-.187-2.312 0-5l1.469-1.375c1.981-2.102 2.013-3.468 2.219-6.312l.199-2.449L870 640z" fill="#5a6045"/><path d="M926 791l1.75 2.25c3.835 4.687 6.288 7.124 12.25 8.75v1c-4.42.442-6.533.285-10.375-2.062-3.055-3.419-3.448-5.425-3.625-9.937z" fill="#cdbd84"/><path d="M435 537l3 2c-4.312 1.833-7.346 2.049-11.965 1.293-3.031-.436-5.978-.357-9.035-.293 3.315-1.998 5.726-2.193 9.563-2.062 3.266.102 5.31.105 8.438-.937z" fill="#56655b"/><path d="M394 502l3 1-10 15c-1-3-1-3 .313-5.687L389 510h2v-3h2l1-5z" fill="#6e6737"/><path d="M874 778l2 1-.375 6.438-.211 3.621L875 792l-2 1-.062-6.937-.035-3.902C873 779 873 779 874 778z" fill="#dbc57e"/><path d="M442 430v3l-2 1 2-4zm-3 4l1 4h-2l-2 5h-2v4h-2c.515-3.814 1.206-5.421 4-8l3-5z" fill="#5d6142"/><path d="M236 134l2 1-10 11-3-1c4.677-6.105 4.677-6.105 9-7 1.284-1.984 1.284-1.984 2-4z" fill="#94a2a7"/><path d="M444 594h2v14l-2 1v-9h-1v-5l1-1z" fill="#4d625b"/><path d="M412 477l2 1-8 12-1-4h2l.438-1.812c1.287-5.004 1.287-5.004 4.563-7.187z" fill="#6f693a"/><path d="M1136 261c4.47 2.427 8.674 5.349 11 10l-8-2-.375-2.437L1138 264l-2-1v-2z" fill="#82969b"/><path d="M809 820c4.244 3.88 7.109 8.043 10 13h-3c-1.824-2.082-1.824-2.082-3.687-4.812l-1.887-2.707C809 823 809 823 809 820z" fill="#706f48"/><path d="M387 517c1 2 1 2 .363 4.129l-1.051 2.434-1.012 2.441C384 528 384 528 381.855 528.777L380 529c1.557-4.671 4.084-8.087 7-12z" fill="#cab676"/><path d="M509 552l3 1-1 5 2 1-4 5-.562-4.312-.316-2.426C508 555 508 555 509 552z" fill="#53665b"/><path d="M434 447c-1.383 2.869-2.921 5.56-4.625 8.25l-1.352 2.141L427 459c-1-3-1-3-.293-5.008l1.105-2.117 1.082-2.133C430.349 447.45 431.295 447 434 447z" fill="#6f693c"/><path d="M498 414c2.918 2.627 4.945 5.67 7 9v2h-4l-1.5-4.375-.844-2.461C498 416 498 416 498 414z" fill="#cdba7b"/><path d="M886 930c3.394 3.126 5.606 5.565 7 10l-3 1v-3h-2l-2-8z" fill="#717357"/><path d="M444 535c2.611.957 3.792 1.656 5.25 4.063 1.023 4.009.911 7.824.75 11.938-2.374-3.56-2.347-5.785-2.559-9.941-.275-2.452-.275-2.452-3.441-4.059v-2z" fill="#786f3d"/><path d="M517 532l-1.687.688c-2.954 1.677-4.981 3.858-7.312 6.313l-2 2c.25-3.375.25-3.375 1-7 2.995-2.551 6.205-2.172 10-2z" fill="#d8be72"/><path d="M471 390h2c-1.557 4.671-4.084 8.087-7 12-.676-1.734-.676-1.734-1-4 1.145-2.141 1.145-2.141 2.813-4.25l1.645-2.141L471 390z" fill="#686745"/><path d="M256 1080c6.769-.308 6.769-.308 10 2 .702 1.315 1.373 2.647 2 4l-4.312-1.312-2.426-.738c-2.361-.991-3.601-2.03-5.262-3.949z" fill="#8b9b9f"/><path d="M866 690h2c1.354 2.709 1.065 5.009 1 8h-4v-7l1-1z" fill="#52635a"/><path d="M1170 312c2.998 1.499 3.308 3.803 4.402 6.855.771 2.768.812 5.29.598 8.145-2.739-3.152-3.553-5.648-4.187-9.75l-.48-2.984L1170 312z" fill="#435962"/><path d="M439 537h3c2.209 3.314 2.225 4.345 2.125 8.188l-.055 2.73L444 550c-1.979-3.636-2.525-6.884-3-11h-2v-2z" fill="#596757"/><path d="M574 522c3.408 2.884 4.866 4.371 5.813 8.813L580 534h-6v-1h5l-1.094-1.645-1.406-2.168-1.406-2.145C574 525 574 525 574 522z" fill="#696d4f"/><path d="M829 297c1 2 1 2 .223 4.82l-1.16 3.305-1.152 3.32L826 311h-1c-.192-4.797.098-8.561 2-13l2-1z" fill="#657a81"/><path d="M832 853c3.394 3.126 5.606 5.565 7 10-3.265-1.804-4.889-2.834-7-6v-4z" fill="#6e6f4e"/><path d="M806 798l4 2v1l-13 1 1-2 7-1 1-1z" fill="#59644e"/><path d="M440 434l2 3-7 10-1-4h2l2-5h2v-4z" fill="#6f683a"/><path d="M909 936c1 2 1 2 .375 5-1.375 3-1.375 3-4 4.375L903 946c1.652-3.579 3.783-6.748 6-10z" fill="#717252"/><path d="M444 531c3 1 3 1 5 4l-1 3-8-5 4-2z" fill="#d4ba6f"/><path d="M459 411l1 2-2 5h-2l-1 4-3-1 7-10z" fill="#c9b673"/><path d="M893 940c2.932 2.853 5.643 5.651 8 9-3.787-.541-5.627-2.034-8-5v-4z" fill="#70745b"/><use href="#B" fill="#c9b472"/><use href="#B" x="15" y="-22" fill="#c5b375"/><path d="M510 535l2 1c0 3 0 3-2 6l-3-1c1.875-4.875 1.875-4.875 3-6z" fill="#6e693c"/><path d="M1097 316c2.032 3.404 2.369 6.323 2.625 10.25l.227 3.266L1100 332h-2c-1.141-3.422-1.098-6.087-1.062-9.687l.027-3.574L1097 316z" fill="#e3e5e6"/><path d="M619 964l3 1-3 11h-1v-7h2l-1-5z" fill="#637981"/><path d="M935 906l2 1-8 7-1-3 1-2 4-1 2-2z" fill="#516256"/><path d="M961 861l1 2 2 1-6 4c0-3.517.824-4.371 3-7z" fill="#6c6d4a"/><path d="M974 842l1 2-2 5h-2v2l-3 1c1.37-3.995 3.257-6.8 6-10z" fill="#756f47"/><path d="M990 803h11c-2 4-2 4-4 5v-4h-7v-1z" fill="#cac49c"/><path d="M833 793l1.813.5c2.301.611 2.301.611 5.188.5l1 2c-3.576 1.238-6.337.749-10 0l2-3z" fill="#4d6461"/><path d="M471 387c2.688-.312 2.688-.312 5 0-1.706 2.784-2.476 3.854-5.687 4.75L468 392c1.188-2.5 1.188-2.5 3-5z" fill="#5d6653"/><path d="M792 129c3.984 2.163 6.89 4.712 10 8-2.312.313-2.312.313-5 0-1.687-2.437-1.687-2.437-3-5l-2-1v-2z" fill="#96a5ac"/><path d="M879 920c3.336 2.991 5.151 5.932 7 10-2 0-2 0-4.062-1.625-2.299-2.818-2.613-4.801-2.937-8.375z" fill="#727250"/><path d="M484 397l6 3-1 4-3-2v-2h-2v-3z" fill="#dac489"/><path d="M1133 260l3 1v2l4 2v2l-4-1v-2h-2l-1-4z" fill="#415b62"/><path d="M271 112l2 1-5 2v2l-3 1-2-2 3.875-2.062 2.18-1.16L271 112z" fill="#829ba1"/><path d="M1000 805h2c-.312 2.375-.312 2.375-1 5l-3 2c-.125-2.375-.125-2.375 0-5l2-2z" fill="#646952"/><path d="M515 440c3.081 2.773 4.688 5.063 6 9-3.161-1.37-3.993-1.989-6-5v-4z" fill="#cdbc81"/><path d="M472 392l2 3-3 4-3-1 4-6z" fill="#ccbc84"/><path d="M477 385c2.875.25 2.875.25 6 1 1.375 2.063 1.375 2.063 2 4l-2 2-.75-2.375c-1.404-2.948-2.257-3.527-5.25-4.625z" fill="#6c7769"/><path d="M205 1017c1.563 1.625 1.563 1.625 3 4-.312 3.25-.312 3.25-1 6-1.958-2.937-2.561-4.574-3-8l1-2z" fill="#7b909a"/><path d="M922 918l4 1-4 6c-.934-3.01-1.044-3.867 0-7z" fill="#586551"/><path d="M967 852l1 4c-1.437 2.25-1.437 2.25-3 4l-3-1 5-7z" fill="#716c44"/><path d="M518 537l3 1-7 7c0-3.908 1.506-5.116 4-8z" fill="#526256"/><path d="M516 431c3.006 3.006 2.596 5.824 3 10h-3v-10z" fill="#5d664d"/><path d="M475 388l4 2-5 4-1-3 2-3z" fill="#d4c693"/><path d="M1087 290l6 2-2 4c-4-4.875-4-4.875-4-6z" fill="#bdc7cb"/><path d="M1001 862l1 4c-1.937 2.25-1.937 2.25-4 4l-2-1 5-7z" fill="#bcc7ca"/><path d="M868 649l2 4-4 4c-.201-3.716-.152-4.772 2-8z" fill="#516252"/><path d="M525 449l5 5-1 3c-2.55-1.275-2.931-2.403-4-5v-3z" fill="#5b644c"/><path d="M1159 291l1 2c2.025.652 2.025.652 4 1v4h-2c-2.296-2.561-3-3.48-3-7z" fill="#465e68"/><path d="M1149 273l5 5-4 2c-1-4.75-1-4.75-1-7z" fill="#839398"/><path d="M814 150l5 5v2l-4-1-1-6z" fill="#91a5ad"/><path d="M775 118c3.995.615 6.745 2.706 10 5-2 1-2 1-4.437.313-2.774-1.421-3.914-2.71-5.562-5.312z" fill="#aeb9bd"/><defs ><path id="B" d="M451 423l1 3c-3.213 5.738-3.213 5.738-7 7 1.37-3.995 3.257-6.8 6-10z"/></defs></svg>