<svg xmlns="http://www.w3.org/2000/svg" viewBox="0 0 36 36"><path id="fi-guess-1" data-fi-guess="1" fill="#003082" d="M32 5H4C1.791 5 0 6.791 0 9v2.5h36V9c0-2.209-1.791-4-4-4z"/><path id="fi-guess-2" data-fi-guess="2" fill="#FFFFFF" d="M0 11.5h36V18H0z"/><path id="fi-guess-3" data-fi-guess="3" fill="#289728" d="M0 18h36v6.5H0z"/><path id="fi-guess-4" data-fi-guess="4" fill="#FFCE00" d="M0 24.5V27c0 2.209 1.791 4 4 4h28c2.209 0 4-1.791 4-4v-2.5H0z"/><path id="fi-guess-5" data-fi-guess="5" fill="#D21034" d="M15 5h6v26h-6z"/><path id="fi-guess-6" data-fi-guess="6" fill="#FFCE00" d="M6.878 7.612l-.68-2.094-.681 2.094H3.316l1.781 1.294L4.417 11l1.781-1.294L7.979 11l-.681-2.094L9.08 7.612z"/></svg>