<svg xmlns="http://www.w3.org/2000/svg" viewBox="0 0 36 36"><path id="fi-guess-1" data-fi-guess="1" fill="#C60A1D" d="M36 27c0 2.209-1.791 4-4 4H4c-2.209 0-4-1.791-4-4V9c0-2.209 1.791-4 4-4h28c2.209 0 4 1.791 4 4v18z"/><path id="fi-guess-2" data-fi-guess="2" fill="#FFC400" d="M0 12h36v12H0z"/><path id="fi-guess-3" data-fi-guess="3" fill="#EA596E" d="M9 17v3c0 1.657 1.343 3 3 3s3-1.343 3-3v-3H9z"/><path id="fi-guess-4" data-fi-guess="4" fill="#F4A2B2" d="M12 16h3v3h-3z"/><path id="fi-guess-5" data-fi-guess="5" fill="#DD2E44" d="M9 16h3v3H9z"/><ellipse fill="#EA596E" cx="12" cy="14.5" rx="3" ry="1.5"/><ellipse fill="#FFAC33" cx="12" cy="13.75" rx="3" ry=".75"/><path id="fi-guess-6" data-fi-guess="6" fill="#99AAB5" d="M7 16h1v7H7zm9 0h1v7h-1z"/><path id="fi-guess-7" data-fi-guess="7" fill="#66757F" d="M6 22h3v1H6zm9 0h3v1h-3zm-8-7h1v1H7zm9 0h1v1h-1z"/></svg>